<svg class="dn" height="0" version="1.1" width="0"
  xmlns="http://www.w3.org/2000/svg">
  <defs>
    <!--list-icon-->
    <g id="list-icon">
		<path d="M8.9965 2.6845l.6147-.571C10.489 1.4192 11.5887 1.0044 12.7827 1 15.6604.9896 17.9963 3.368 18 6.312c.0071 5.6215-7.6599 10.8832-8.9862 10.888C7.6875 17.2048.007 11.9987 0 6.3771-.0037 3.433 2.326 1.038 5.2038 1.0275c1.196-.0044 2.2984.404 3.1787 1.0927l.614.5643zm1.0087 12.0885c.8859-.5693 1.8622-1.3433 2.7486-2.2029 2.1612-2.0958 3.4486-4.334 3.4462-6.2558-.0025-1.9575-1.5382-3.521-3.4108-3.5143-.9441.0034-1.8252.4038-2.4674 1.1025L9.0036 5.3369 7.6777 3.9095c-.6428-.692-1.524-1.0855-2.4674-1.082C3.3343 2.8341 1.7975 4.414 1.8 6.3747c.0024 1.9203 1.2941 4.1468 3.4589 6.2253.888.8526 1.8656 1.6189 2.7523 2.1815.3779.2397.7167.4273.9784.5461.2991-.1216.6379-.3119 1.0156-.5547z" fill="#F71963"/>    </g>
    <!--menu-icon-->
    <g id="menu-icon">
      <path fill-rule="evenodd" clip-rule="evenodd" d="M20 18.6667V17.3333C20 16.9653 19.7013 16.6667 19.3333 16.6667H0.666667C0.298667 16.6667 0 16.9653 0 17.3333V18.6667C0 19.0347 0.298667 19.3333 0.666667 19.3333H19.3333C19.7013 19.3333 20 19.0347 20 18.6667ZM20 2.66667V1.33334C20 0.965338 19.7013 0.666672 19.3333 0.666672H0.666667C0.298667 0.666672 0 0.965338 0 1.33334V2.66667C0 3.03467 0.298667 3.33334 0.666667 3.33334H19.3333C19.7013 3.33334 20 3.03467 20 2.66667ZM19.3333 11.3333H0.666667C0.298667 11.3333 0 11.0347 0 10.6667V9.33334C0 8.96534 0.298667 8.66667 0.666667 8.66667H19.3333C19.7013 8.66667 20 8.96534 20 9.33334V10.6667C20 11.0347 19.7013 11.3333 19.3333 11.3333Z" fill="#F71963"/>
    </g>

    <!--pin-icon-->
    <g id="pin-icon">
      <path d="M12.0001 14C13.657 14 15.0001 12.6569 15.0001 11C15.0001 9.34315 13.657 8 12.0001 8C10.3433 8 9.00012 9.34315 9.00012 11C9.00012 12.6569 10.3433 14 12.0001 14Z" stroke="#FDB31B" stroke-width="2" stroke-linecap="round" stroke-linejoin="round"/>
      <path d="M17.6571 16.657L13.4141 20.9C13.0391 21.2746 12.5307 21.4851 12.0006 21.4851C11.4705 21.4851 10.9621 21.2746 10.5871 20.9L6.34313 16.657C5.22435 15.5382 4.46246 14.1127 4.15381 12.5609C3.84516 11.009 4.00362 9.40051 4.60913 7.93873C5.21464 6.47694 6.24002 5.22754 7.55561 4.3485C8.87119 3.46947 10.4179 3.00029 12.0001 3.00029C13.5824 3.00029 15.1291 3.46947 16.4446 4.3485C17.7602 5.22754 18.7856 6.47694 19.3911 7.93873C19.9966 9.40051 20.1551 11.009 19.8464 12.5609C19.5378 14.1127 18.7759 15.5382 17.6571 16.657V16.657Z" stroke="#FDB31B" stroke-width="2" stroke-linecap="round" stroke-linejoin="round"/>
    </g>
    <g id="hpa-hamburguer-menu">
      <path fill="currentColor" d="M15,7H1C0.4,7,0,7.4,0,8s0.4,1,1,1h14c0.6,0,1-0.4,1-1S15.6,7,15,7z"/>
      <path fill="currentColor" d="M15,1H1C0.4,1,0,1.4,0,2s0.4,1,1,1h14c0.6,0,1-0.4,1-1S15.6,1,15,1z"/>
      <path fill="currentColor" d="M15,13H1c-0.6,0-1,0.4-1,1s0.4,1,1,1h14c0.6,0,1-0.4,1-1S15.6,13,15,13z"/>
    </g>
    <g id="nav-home">
      <path d="M15.9292 7.3942C15.9287 7.39381 15.9283 7.39329 15.9279 7.3929L9.25008 0.458489C8.96545 0.162773 8.58701 0 8.18447 0C7.78193 0 7.40349 0.162773 7.11873 0.458489L0.444398 7.3894C0.44215 7.39173 0.439777 7.3942 0.437653 7.39653C-0.146861 8.00703 -0.145862 8.99755 0.440526 9.60649C0.708428 9.88482 1.06213 10.0459 1.44045 10.0629C1.45593 10.0645 1.47142 10.0652 1.48703 10.0652H1.75306V15.1684C1.75306 16.1784 2.5444 17 3.51697 17H6.12955C6.39446 17 6.60915 16.777 6.60915 16.502V12.501C6.60915 12.0402 6.97023 11.6653 7.41398 11.6653H8.95495C9.39871 11.6653 9.75966 12.0402 9.75966 12.501V16.502C9.75966 16.777 9.97436 17 10.2393 17H12.8518C13.8245 17 14.6158 16.1784 14.6158 15.1684V10.0652H14.8625C15.265 10.0652 15.6434 9.90246 15.9283 9.60662C16.5153 8.99677 16.5155 8.00443 15.9292 7.3942ZM15.25 8.90235C15.1464 9.00987 15.0088 9.06914 14.8625 9.06914H14.1362C13.8712 9.06914 13.6565 9.2921 13.6565 9.56719V15.1684C13.6565 15.6291 13.2956 16.0039 12.8518 16.0039H10.7189V12.501C10.7189 11.491 9.92765 10.6692 8.95495 10.6692H7.41398C6.44129 10.6692 5.64995 11.491 5.64995 12.501V16.0039H3.51697C3.07334 16.0039 2.71226 15.6291 2.71226 15.1684V9.56719C2.71226 9.2921 2.49757 9.06914 2.23266 9.06914H1.51876C1.51126 9.06862 1.50389 9.06823 1.49627 9.0681C1.35339 9.06551 1.21938 9.00663 1.11896 8.90222C0.90539 8.68043 0.90539 8.31948 1.11896 8.09756C1.11909 8.09756 1.11909 8.09743 1.11921 8.0973L1.11959 8.09691L7.79717 1.16276C7.90058 1.05524 8.03809 0.996096 8.18447 0.996096C8.33072 0.996096 8.46823 1.05524 8.57177 1.16276L15.2479 8.09548C15.2489 8.09652 15.25 8.09756 15.251 8.0986C15.4634 8.32077 15.463 8.68095 15.25 8.90235Z" fill="black"/>
    </g>
    <g id="ship-info-pdp">
      <g clip-path="url(#clip0)">
        <path d="M16.6159 13.08C15.0868 13.08 13.8428 14.324 13.8428 15.8531C13.8428 17.3823 15.0868 18.6263 16.6159 18.6263C18.1453 18.6263 19.389 17.3823 19.389 15.8531C19.389 14.324 18.145 13.08 16.6159 13.08ZM16.6159 17.2397C15.8512 17.2397 15.2293 16.6178 15.2293 15.8531C15.2293 15.0885 15.8512 14.4666 16.6159 14.4666C17.3806 14.4666 18.0025 15.0885 18.0025 15.8531C18.0025 16.6179 17.3806 17.2397 16.6159 17.2397Z" fill="#06623A"/>
        <path d="M7.14128 13.08C5.61215 13.08 4.36816 14.324 4.36816 15.8531C4.36816 17.3823 5.61215 18.6263 7.14128 18.6263C8.67041 18.6263 9.9144 17.3823 9.9144 15.8531C9.9144 14.324 8.67041 13.08 7.14128 13.08ZM7.14128 17.2397C6.37661 17.2397 5.75472 16.6178 5.75472 15.8531C5.75472 15.0885 6.37661 14.4666 7.14128 14.4666C7.90574 14.4666 8.52784 15.0885 8.52784 15.8531C8.52784 16.6179 7.90595 17.2397 7.14128 17.2397Z" fill="#06623A"/>
        <path d="M18.4828 5.14222C18.3649 4.90812 18.1252 4.76044 17.8632 4.76044H14.2119V6.147H17.4356L19.3234 9.90179L20.5626 9.27874L18.4828 5.14222Z" fill="#06623A"/>
        <path d="M14.5358 15.1825H9.29004V16.5691H14.5358V15.1825Z" fill="#06623A"/>
        <path d="M5.06143 15.1825H2.6581C2.27516 15.1825 1.96484 15.4929 1.96484 15.8758C1.96484 16.2587 2.27521 16.569 2.6581 16.569H5.06147C5.44441 16.569 5.75473 16.2586 5.75473 15.8758C5.75473 15.4928 5.44437 15.1825 5.06143 15.1825Z" fill="#06623A"/>
        <path d="M21.8549 10.9446L20.4913 9.1883C20.3603 9.01913 20.1581 8.92021 19.9438 8.92021H14.906V4.06728C14.906 3.68434 14.5956 3.37402 14.2127 3.37402H2.6581C2.27516 3.37402 1.96484 3.68439 1.96484 4.06728C1.96484 4.45018 2.27521 4.76054 2.6581 4.76054H13.5194V9.61347C13.5194 9.99641 13.8298 10.3067 14.2127 10.3067H19.6043L20.614 11.6073V15.1828H18.6959C18.3129 15.1828 18.0026 15.4931 18.0026 15.876C18.0026 16.259 18.313 16.5693 18.6959 16.5693H21.3072C21.6902 16.5693 22.0005 16.2589 22.0005 15.876V11.3698C22.0005 11.2159 21.9492 11.0662 21.8549 10.9446Z" fill="#06623A"/>
        <path d="M5.01419 11.67H1.82509C1.44216 11.67 1.13184 11.9803 1.13184 12.3632C1.13184 12.7462 1.4422 13.0565 1.82509 13.0565H5.01415C5.39709 13.0565 5.70741 12.7461 5.70741 12.3632C5.70745 11.9803 5.39709 11.67 5.01419 11.67Z" fill="#06623A"/>
        <path d="M6.60924 8.94348H0.693258C0.310363 8.94348 0 9.25384 0 9.63678C0 10.0197 0.310363 10.33 0.693258 10.33H6.60924C6.99218 10.33 7.3025 10.0197 7.3025 9.63678C7.3025 9.25389 6.99218 8.94348 6.60924 8.94348Z" fill="#06623A"/>
        <path d="M7.74107 6.21655H1.82509C1.44216 6.21655 1.13184 6.52692 1.13184 6.90981C1.13184 7.29275 1.4422 7.60307 1.82509 7.60307H7.74107C8.12401 7.60307 8.43433 7.29271 8.43433 6.90981C8.43437 6.52692 8.12401 6.21655 7.74107 6.21655Z" fill="#06623A"/>
      </g>
      <defs>
        <clipPath id="clip0">
          <rect width="22" height="22" fill="white"/>
        </clipPath>
      </defs>
    </g>
    <!-- bebidas -->
    <g id="bebidas">
      <path d="M0.65625 5.90625V12.9062C0.656446 13.0802 0.725649 13.247 0.848677 13.3701C0.971706 13.4931 1.13851 13.5623 1.3125 13.5625H4.375C4.54899 13.5623 4.71579 13.4931 4.83882 13.3701C4.96185 13.247 5.03105 13.0802 5.03125 12.9062V5.90625C5.03129 5.87749 5.02564 5.84901 5.01462 5.82244C5.00361 5.79588 4.98745 5.77175 4.96707 5.75146L3.74817 4.53255C3.81445 4.3102 3.9375 3.84945 3.9375 3.5C3.9375 3.21513 3.85566 2.85644 3.78957 2.61305C3.8327 2.59829 3.87014 2.57043 3.89667 2.53335C3.92319 2.49627 3.93747 2.45184 3.9375 2.40625V1.09375C3.9373 0.919764 3.86809 0.752962 3.74506 0.629935C3.62204 0.506908 3.45524 0.437703 3.28125 0.4375H2.40625C2.23226 0.437703 2.06546 0.506908 1.94244 0.629935C1.81941 0.752962 1.7502 0.919764 1.75 1.09375V2.40625C1.75004 2.45184 1.76431 2.49627 1.79083 2.53335C1.81736 2.57043 1.8548 2.59829 1.89793 2.61305C1.83184 2.85644 1.75 3.21513 1.75 3.5C1.75 3.84945 1.87305 4.3102 1.93933 4.53255L0.720426 5.75146C0.700051 5.77175 0.683892 5.79588 0.672878 5.82244C0.661864 5.84901 0.656213 5.87749 0.65625 5.90625ZM2.1875 1.09375C2.18757 1.03575 2.21063 0.980152 2.25164 0.939142C2.29265 0.898133 2.34825 0.875065 2.40625 0.875H3.28125C3.33925 0.875065 3.39485 0.898133 3.43586 0.939142C3.47687 0.980152 3.49994 1.03575 3.5 1.09375V1.3125H2.1875V1.09375ZM2.1875 1.75H3.5V2.1875H2.1875V1.75ZM2.34918 2.625H3.33837C3.39951 2.83481 3.5 3.222 3.5 3.5C3.5 3.77735 3.39943 4.16497 3.33832 4.375H2.34913C2.28799 4.16519 2.1875 3.778 2.1875 3.5C2.1875 3.22265 2.28807 2.83503 2.34918 2.625ZM2.27809 4.8125H3.40941L4.28441 5.6875H1.40309L2.27809 4.8125ZM1.09375 6.125H4.59375V6.5625H1.09375V6.125ZM1.09375 7H4.59375V11.8125H1.09375V7ZM1.09375 12.25H4.59375V12.9062C4.59368 12.9642 4.57062 13.0198 4.52961 13.0609C4.4886 13.1019 4.433 13.1249 4.375 13.125H1.3125C1.2545 13.1249 1.1989 13.1019 1.15789 13.0609C1.11688 13.0198 1.09382 12.9642 1.09375 12.9062V12.25Z" fill="#06623A"/>
      <path d="M5.46876 7.21873V12.8928C5.46895 13.0703 5.53957 13.2405 5.66512 13.3661C5.79067 13.4917 5.9609 13.5623 6.13846 13.5625H8.73655C8.91411 13.5623 9.08434 13.4917 9.20989 13.3661C9.33544 13.2405 9.40606 13.0703 9.40625 12.8928V7.21873C9.40689 6.93727 9.34683 6.65897 9.23016 6.40282C9.1135 6.14667 8.94297 5.91868 8.73021 5.73441L8.31978 2.45072C8.38646 2.38939 8.43969 2.31489 8.47609 2.23192C8.5125 2.14895 8.53128 2.05934 8.53125 1.96873V1.74998C8.5645 1.74998 8.5973 1.74241 8.62718 1.72783C8.65705 1.71325 8.68321 1.69206 8.70367 1.66586C8.72413 1.63966 8.73834 1.60914 8.74524 1.57662C8.75214 1.5441 8.75153 1.51044 8.74347 1.47819L8.60757 0.934567C8.57222 0.792509 8.49032 0.666377 8.37493 0.576286C8.25955 0.486194 8.11732 0.43733 7.97093 0.437485H6.90408C6.75769 0.437325 6.61546 0.486188 6.50007 0.57628C6.38469 0.666372 6.30279 0.792506 6.26744 0.934567L6.13154 1.47819C6.12348 1.51044 6.12287 1.5441 6.12977 1.57662C6.13667 1.60914 6.15088 1.63966 6.17134 1.66586C6.1918 1.69206 6.21796 1.71325 6.24783 1.72783C6.27771 1.74241 6.31051 1.74998 6.34375 1.74998V1.96873C6.34373 2.05934 6.36252 2.14896 6.39892 2.23193C6.43533 2.31489 6.48856 2.3894 6.55526 2.45072L6.14477 5.73441C5.93202 5.91868 5.7615 6.14667 5.64484 6.40282C5.52817 6.65897 5.46812 6.93727 5.46876 7.21873ZM6.69187 1.04069C6.70366 0.993336 6.73096 0.951293 6.76942 0.921261C6.80788 0.89123 6.85529 0.874939 6.90408 0.874985H7.97093C8.01973 0.874933 8.06714 0.891221 8.10561 0.921253C8.14408 0.951285 8.17138 0.993331 8.18317 1.04069L8.25109 1.31249H6.62392L6.69187 1.04069ZM8.09375 1.74998V1.96873C8.09369 2.02673 8.07062 2.08233 8.02961 2.12334C7.9886 2.16435 7.933 2.18742 7.875 2.18748H7C6.94201 2.18742 6.88641 2.16435 6.8454 2.12334C6.80439 2.08233 6.78132 2.02673 6.78125 1.96873V1.74998H8.09375ZM6.48706 6.01867C6.53195 5.98307 6.56108 5.93128 6.56819 5.87443L6.97444 2.62433C6.98294 2.62466 6.99142 2.62498 7 2.62498H7.875C7.88356 2.62498 7.89207 2.62466 7.90057 2.62433L8.30682 5.87443C8.31393 5.93128 8.34306 5.98307 8.38795 6.01867C8.56936 6.16162 8.71592 6.34393 8.81653 6.55182C8.91715 6.75972 8.9692 6.98777 8.96875 7.21873V12.8928C8.9687 12.9543 8.94422 13.0134 8.90069 13.0569C8.85716 13.1004 8.79812 13.1249 8.73655 13.125H6.13846C6.07689 13.1249 6.01785 13.1004 5.97432 13.0569C5.93079 13.0134 5.90631 12.9543 5.90626 12.8928V7.21873C5.90581 6.98777 5.95786 6.75972 6.05847 6.55182C6.15909 6.34393 6.30565 6.16162 6.48706 6.01867Z" fill="#06623A"/>
      <path d="M9.84375 6.5625V12.9062C9.84395 13.0802 9.91315 13.247 10.0362 13.3701C10.1592 13.4931 10.326 13.5623 10.5 13.5625H12.6875C12.8615 13.5623 13.0283 13.4931 13.1513 13.3701C13.2744 13.247 13.3436 13.0802 13.3438 12.9062V6.5625C13.3428 6.25551 13.2615 5.95411 13.108 5.68825C12.9545 5.42238 12.7341 5.20128 12.4688 5.04692V2.625H12.6875C12.7455 2.625 12.8012 2.60195 12.8422 2.56093C12.8832 2.51991 12.9062 2.46427 12.9062 2.40625V1.53125C12.9062 1.47323 12.8832 1.41759 12.8422 1.37657C12.8012 1.33555 12.7455 1.3125 12.6875 1.3125V1.09375C12.6873 0.919764 12.6181 0.752962 12.4951 0.629935C12.372 0.506908 12.2052 0.437703 12.0312 0.4375H11.1562C10.9823 0.437703 10.8155 0.506908 10.6924 0.629935C10.5694 0.752962 10.5002 0.919764 10.5 1.09375V1.3125C10.442 1.3125 10.3863 1.33555 10.3453 1.37657C10.3043 1.41759 10.2812 1.47323 10.2812 1.53125V2.40625C10.2812 2.46427 10.3043 2.51991 10.3453 2.56093C10.3863 2.60195 10.442 2.625 10.5 2.625H10.7188V5.04692C10.4534 5.20128 10.233 5.42238 10.0795 5.68825C9.92603 5.95411 9.84475 6.25551 9.84375 6.5625ZM12.9062 12.9062C12.9062 12.9642 12.8831 13.0198 12.8421 13.0609C12.8011 13.1019 12.7455 13.1249 12.6875 13.125H10.5C10.442 13.1249 10.3864 13.1019 10.3454 13.0609C10.3044 13.0198 10.2813 12.9642 10.2812 12.9062V12.25H12.9062V12.9062ZM12.9062 6.5625V11.8125H10.2812V6.5625H12.9062ZM10.9375 1.09375C10.9376 1.03575 10.9606 0.980152 11.0016 0.939142C11.0427 0.898133 11.0983 0.875065 11.1562 0.875H12.0312C12.0892 0.875065 12.1448 0.898133 12.1859 0.939142C12.2269 0.980152 12.2499 1.03575 12.25 1.09375V1.3125H10.9375V1.09375ZM10.7188 1.75H12.4688V2.1875H10.7188V1.75ZM12.0312 2.625V3.9375H11.1562V2.625H12.0312ZM11.0314 5.37641C11.0688 5.35866 11.1003 5.33068 11.1224 5.29572C11.1445 5.26077 11.1562 5.22026 11.1562 5.17891V4.375H12.0312V5.17891C12.0312 5.22028 12.043 5.26081 12.0651 5.29579C12.0872 5.33077 12.1187 5.35876 12.1561 5.37652C12.4709 5.52708 12.7133 5.7962 12.8302 6.125H10.3573C10.4742 5.79616 10.7166 5.527 11.0314 5.37641Z" fill="#06623A"/>
      <path d="M2.84375 7.4375C2.61177 7.43776 2.38936 7.53003 2.22532 7.69407C2.06128 7.85811 1.96901 8.08052 1.96875 8.3125V10.5C1.96875 10.7321 2.06094 10.9546 2.22503 11.1187C2.38913 11.2828 2.61169 11.375 2.84375 11.375C3.07581 11.375 3.29837 11.2828 3.46247 11.1187C3.62656 10.9546 3.71875 10.7321 3.71875 10.5V8.3125C3.71849 8.08052 3.62622 7.85811 3.46218 7.69407C3.29814 7.53003 3.07573 7.43776 2.84375 7.4375ZM3.28125 10.5C3.28125 10.616 3.23516 10.7273 3.15311 10.8094C3.07106 10.8914 2.95978 10.9375 2.84375 10.9375C2.72772 10.9375 2.61644 10.8914 2.53439 10.8094C2.45234 10.7273 2.40625 10.616 2.40625 10.5V8.3125C2.40625 8.19647 2.45234 8.08519 2.53439 8.00314C2.61644 7.92109 2.72772 7.875 2.84375 7.875C2.95978 7.875 3.07106 7.92109 3.15311 8.00314C3.23516 8.08519 3.28125 8.19647 3.28125 8.3125V10.5Z" fill="#06623A"/>
      <path d="M7.43758 11.3822C7.76133 11.3822 8.05282 11.1558 8.25839 10.7448C8.43902 10.3835 8.53853 9.90805 8.53853 9.40629C8.53853 8.90453 8.43902 8.4291 8.25839 8.06781C8.05282 7.65675 7.76133 7.43037 7.43758 7.43037C7.11383 7.43037 6.82235 7.65675 6.61678 8.06781C6.43615 8.4291 6.33667 8.90453 6.33667 9.40629C6.33667 9.90805 6.43615 10.3835 6.61678 10.7448C6.82235 11.1558 7.11383 11.3822 7.43758 11.3822ZM7.43758 7.8822C7.74383 7.8822 8.08664 8.53399 8.08664 9.40629C8.08664 10.2786 7.74397 10.9304 7.43758 10.9304C7.1312 10.9304 6.7885 10.2786 6.7885 9.40629C6.7885 8.53402 7.13133 7.8822 7.43758 7.8822Z" fill="#06623A"/>
    </g>
    <!-- mercearia -->
    <g id="mercearia">
      <path d="M2.59644 12.911C2.59644 13.0243 2.68823 13.1161 2.80151 13.1161H7.77343C7.88672 13.1161 7.97851 13.0243 7.97851 12.911C7.97851 12.7977 7.88672 12.7059 7.77343 12.7059H2.80151C2.68823 12.7059 2.59644 12.7977 2.59644 12.911Z" fill="#06623A"/>
      <path d="M3.63013 11.6011C3.51684 11.6011 3.42505 11.6929 3.42505 11.8062C3.42505 11.9195 3.51684 12.0113 3.63013 12.0113H6.94471C7.05799 12.0113 7.14979 11.9195 7.14979 11.8062C7.14979 11.6929 7.05799 11.6011 6.94471 11.6011H3.63013Z" fill="#06623A"/>
      <path d="M0.404043 9.82491C0.407543 9.8251 0.411015 9.82518 0.414461 9.82518C0.523015 9.82518 0.613632 9.73998 0.619101 9.63036L0.890542 4.21222L1.51051 4.60439C1.57747 4.64674 1.66281 4.64674 1.7298 4.60439L2.53702 4.0938L3.34423 4.60439C3.4112 4.64674 3.49654 4.64674 3.56353 4.60439L4.37072 4.0938L5.17793 4.60439C5.2449 4.64674 5.33024 4.64674 5.39723 4.60439L6.20444 4.0938L7.01163 4.60439C7.0786 4.6468 7.16394 4.64674 7.23093 4.60439L8.03814 4.0938L8.84536 4.60439C8.91232 4.64674 8.99766 4.64674 9.06465 4.60439L9.68459 4.21225L9.722 4.9595C9.72766 5.07262 9.82328 5.15998 9.93706 5.15405C10.0502 5.14839 10.1373 5.05209 10.1316 4.93899L10.0766 3.84087C10.073 3.76805 10.031 3.70262 9.96623 3.66907C9.90154 3.63551 9.82385 3.63882 9.76219 3.67782L8.95498 4.18841L8.86256 4.12994V3.19184C8.86256 3.07855 8.77076 2.98676 8.65748 2.98676C8.54419 2.98676 8.4524 3.07855 8.4524 3.19184V3.87045L8.14776 3.67776C8.0808 3.63541 7.99546 3.63541 7.92847 3.67776L7.12125 4.18835L6.31407 3.67776C6.2471 3.63535 6.16176 3.63541 6.09477 3.67776L5.49258 4.05866V3.74407V1.89C5.49258 1.07401 6.15643 0.410156 6.97242 0.410156C7.78841 0.410156 8.45226 1.07401 8.45226 1.89V2.23207C8.45226 2.34536 8.54406 2.43715 8.65734 2.43715C8.77063 2.43715 8.86242 2.34536 8.86242 2.23207V1.89C8.86242 0.847848 8.01457 0 6.97242 0C5.93027 0 5.08242 0.847848 5.08242 1.89V2.78395L4.88902 2.56473C4.74388 2.40026 4.66395 2.18887 4.66395 1.96943V1.40982C4.81125 1.33448 4.91253 1.1815 4.91253 1.00502V0.454754C4.91253 0.204012 4.70852 0 4.45778 0H2.52644C2.27569 0 2.07168 0.204012 2.07168 0.454754V1.00502C2.07168 1.1815 2.17296 1.33448 2.32026 1.40982V1.96943C2.32026 2.18884 2.24031 2.40026 2.09517 2.56473L1.81933 2.87738C1.60799 3.11686 1.49164 3.42467 1.49164 3.74404V4.10703L0.812996 3.67776C0.751335 3.63871 0.673625 3.63543 0.608957 3.66901C0.544234 3.70259 0.502179 3.768 0.498543 3.84081L0.209492 9.60982C0.203804 9.72294 0.290949 9.81925 0.404043 9.82491ZM2.48184 0.454754C2.48184 0.430172 2.50183 0.410156 2.52644 0.410156H4.45778C4.48236 0.410156 4.50238 0.430144 4.50238 0.454754V1.00502C4.50238 1.0296 4.48239 1.04962 4.45778 1.04962H2.52644C2.50185 1.04962 2.48184 1.02963 2.48184 1.00502V0.454754ZM2.12686 3.14874L2.40268 2.83612C2.61402 2.59664 2.73039 2.28884 2.73039 1.96943V1.45975H4.25377V1.96943C4.25377 2.28886 4.37017 2.59664 4.58146 2.83609L4.8573 3.14874C5.00247 3.31327 5.08239 3.52466 5.08239 3.74404V4.05863L4.48026 3.67776C4.41329 3.63535 4.32795 3.63541 4.26096 3.67776L3.45377 4.18835L2.64656 3.67776C2.57959 3.63541 2.49425 3.63541 2.42726 3.67776L1.90166 4.01021V3.74401C1.90177 3.52466 1.98172 3.31327 2.12686 3.14874Z" fill="#06623A"/>
      <path d="M10.1795 5.89763C10.1739 5.78451 10.0783 5.6966 9.96446 5.70308C9.85134 5.70874 9.76422 5.80504 9.76991 5.91814L10.1542 13.5898H0.420673L0.570926 10.5887C0.576587 10.4756 0.489469 10.3793 0.376376 10.3737C0.262653 10.3678 0.166977 10.4551 0.161317 10.5682L0.000262399 13.7847C-0.00258135 13.8408 0.0177897 13.8956 0.0564811 13.9363C0.0951999 13.9769 0.148903 14 0.205094 14H10.3699C10.4261 14 10.4798 13.9769 10.5185 13.9363C10.5572 13.8956 10.5775 13.8408 10.5747 13.7847L10.1795 5.89763Z" fill="#06623A"/>
      <path d="M5.93872 2.35957C5.93872 2.72841 6.38314 3.00658 6.97245 3.00658C7.56176 3.00658 8.00618 2.72841 8.00618 2.35957C8.00618 1.99071 7.56176 1.71254 6.97245 1.71254C6.38314 1.71254 5.93872 1.99071 5.93872 2.35957ZM7.59602 2.35957C7.59602 2.42832 7.37752 2.59643 6.97245 2.59643C6.56738 2.59643 6.34888 2.42832 6.34888 2.35957C6.34888 2.29083 6.56738 2.1227 6.97245 2.1227C7.37752 2.1227 7.59602 2.29083 7.59602 2.35957Z" fill="#06623A"/>
      <path d="M5.28758 6.46347C4.1845 6.46347 3.28711 7.36089 3.28711 8.46396C3.28711 9.56703 4.1845 10.4644 5.28758 10.4644C6.39065 10.4644 7.28805 9.56703 7.28805 8.46396C7.28805 7.36089 6.39065 6.46347 5.28758 6.46347ZM5.28758 10.0543C4.41069 10.0543 3.69727 9.34085 3.69727 8.46396C3.69727 7.58705 4.41069 6.87363 5.28758 6.87363C6.16447 6.87363 6.87789 7.58705 6.87789 8.46396C6.87789 9.34085 6.16447 10.0543 5.28758 10.0543Z" fill="#06623A"/>
    </g>
    <!-- padaria -->
    <g id="padaria">
      <path d="M13.1757 5.94058C13.0893 5.86727 12.9599 5.87797 12.8866 5.96432C12.8134 6.0507 12.824 6.18014 12.9104 6.25337C13.3543 6.62984 13.5892 7.05118 13.5898 7.47186C13.5903 7.75427 13.489 7.99301 13.2803 8.20169C12.9313 8.55071 12.2819 8.81067 11.3502 8.97443C10.5138 9.1214 9.46624 9.19274 8.1468 9.19012C6.10971 9.18736 4.67269 9.01107 3.77357 8.65265C4.11991 8.40623 4.49045 8.11045 4.8878 7.76335C5.00809 7.90726 5.18055 8.00236 5.37387 8.02188C5.77538 8.06243 6.1367 7.76518 6.17545 7.36131C6.20134 7.09124 6.20192 6.81927 6.1775 6.55131C6.53748 6.19217 6.86219 5.85317 7.15405 5.5316C7.31845 5.81297 7.43165 6.10951 7.49098 6.41628C7.54165 6.67772 7.55415 6.94836 7.52809 7.22076C7.48959 7.62436 7.78438 7.98568 8.18683 8.02634C8.58736 8.06681 8.94581 7.77182 8.98499 7.36519C9.0248 6.95233 9.00556 6.53914 8.92779 6.13705C8.84576 5.71355 8.69818 5.30468 8.48848 4.91705C8.88229 4.92936 9.26748 4.96137 9.6393 5.01234C9.98167 5.44618 10.1928 5.9186 10.2665 6.41776C10.3054 6.68122 10.3057 6.95208 10.2674 7.22287C10.2107 7.62436 10.489 7.99858 10.8881 8.05715C11.284 8.11526 11.6595 7.83758 11.7166 7.43331C11.7748 7.02178 11.774 6.60818 11.7144 6.20401C11.6785 5.96087 11.6207 5.7203 11.542 5.48476C11.746 5.56307 11.9404 5.6488 12.1235 5.74193C12.2229 5.79252 12.3472 5.75437 12.3992 5.65216C12.4506 5.55123 12.4104 5.42775 12.3095 5.37637C11.1824 4.80281 9.62443 4.48669 8.02304 4.50162C8.1334 4.35861 8.23618 4.21924 8.33148 4.08331C8.93214 3.22647 9.22414 2.52428 9.22414 1.93666C9.22414 1.53263 9.08359 1.18758 8.80644 0.911188C8.22653 0.332839 7.24475 0.241703 6.04204 0.654512C4.88843 1.05045 3.65244 1.86754 2.56178 2.95522C0.981641 4.53109 0 6.38147 0 7.78426C0 8.366 0.177105 8.85012 0.512203 9.18429C0.790152 9.46148 1.13195 9.60003 1.53494 9.6C1.96156 9.6 2.45675 9.44474 3.01733 9.13431C3.13223 9.07068 3.25021 9.00035 3.37127 8.92365C4.3065 9.37562 5.87087 9.59721 8.14622 9.60027C9.4468 9.60202 10.58 9.52623 11.4212 9.37841C12.4518 9.19728 13.1548 8.90725 13.5703 8.49173C13.856 8.20604 14.0005 7.86271 14 7.47129C13.9992 6.92657 13.7142 6.39728 13.1757 5.94058ZM11.0373 5.31211C11.1692 5.61976 11.2608 5.93941 11.3087 6.2639C11.3626 6.62915 11.3632 7.0033 11.3105 7.37589C11.2853 7.55422 11.1232 7.67708 10.9475 7.65129C10.7712 7.62545 10.6483 7.45898 10.6736 7.28029C10.7174 6.97057 10.7169 6.66022 10.6723 6.35785C10.6075 5.91901 10.4511 5.50002 10.2065 5.10676C10.4946 5.16347 10.7723 5.23202 11.0373 5.31211ZM5.76718 7.32215C5.75118 7.48953 5.61436 7.61564 5.4486 7.61564C5.3471 7.61564 5.25506 7.5691 5.19425 7.49029C5.38513 7.31699 5.58198 7.13242 5.78504 6.93644C5.78528 7.06496 5.77951 7.19378 5.76718 7.32215ZM8.52513 6.21495C8.5954 6.57838 8.61279 6.95211 8.57675 7.32598C8.55952 7.50481 8.40301 7.63592 8.22648 7.6181C8.04937 7.60021 7.91927 7.43943 7.93641 7.25978C7.96619 6.94828 7.95181 6.63829 7.8937 6.33833C7.81741 5.94395 7.66456 5.56554 7.43903 5.21116C7.52497 5.11242 7.6078 5.0153 7.68729 4.91987C7.79472 4.91579 7.90314 4.91281 8.01213 4.91175C8.26435 5.3213 8.43686 5.75921 8.52513 6.21495ZM5.18569 1.47972C5.49626 1.60397 5.78676 1.76516 6.0498 1.96053C6.34618 2.1807 6.61117 2.44479 6.83741 2.74552C6.93853 2.87994 6.92248 3.0653 6.80009 3.1767C6.65949 3.30464 6.4347 3.28156 6.31941 3.1283C6.13137 2.87833 5.91161 2.65919 5.66625 2.47697C5.31032 2.21261 4.90366 2.02698 4.45301 1.92179C4.69673 1.75835 4.94164 1.61053 5.18569 1.47972ZM1.16184 5.43273C1.48195 5.54333 1.78268 5.69271 2.05754 5.87832C2.36348 6.08499 2.64009 6.33696 2.87965 6.62729C2.98679 6.75715 2.97921 6.94325 2.86193 7.06017C2.72748 7.19424 2.50204 7.18122 2.38005 7.0334C2.18094 6.7921 1.95155 6.58297 1.69827 6.41191C1.44479 6.24071 1.16479 6.10752 0.86409 6.01318C0.951836 5.82177 1.05126 5.62782 1.16184 5.43273ZM2.81865 8.7755C1.89473 9.28716 1.23504 9.32591 0.801828 8.89387C0.541926 8.63468 0.410156 8.26136 0.410156 7.78426C0.410156 7.36525 0.513762 6.89193 0.704457 6.39312C0.981395 6.47614 1.23802 6.59604 1.46869 6.75182C1.68938 6.90087 1.88956 7.08344 2.06366 7.29446C2.33866 7.62775 2.84717 7.65408 3.15156 7.35056C3.41947 7.08342 3.43859 6.66024 3.19599 6.36624C2.93141 6.04561 2.62563 5.76711 2.28709 5.53847C2.00594 5.34859 1.70048 5.19347 1.37684 5.07444C1.54492 4.80828 1.73217 4.54178 1.93703 4.27863C2.35596 4.30225 2.92936 4.4107 3.45816 4.76786C3.67888 4.91689 3.87904 5.09946 4.05311 5.31045C4.31162 5.62375 4.77572 5.66982 5.08736 5.41506C5.40127 5.15847 5.44324 4.69461 5.18547 4.38226C5.02255 4.18481 4.84217 4.00155 4.64934 3.83757C4.5631 3.76424 4.43362 3.77465 4.36026 3.86095C4.28687 3.94722 4.29734 4.07667 4.38364 4.15003C4.55815 4.29842 4.72147 4.46437 4.86907 4.64328C4.98367 4.78219 4.96516 4.98511 4.8277 5.09749C4.68986 5.2102 4.48429 5.1886 4.36945 5.04937C4.17033 4.80806 3.94097 4.59896 3.68769 4.42793C3.27228 4.14735 2.78091 3.9668 2.24913 3.89642C2.4118 3.70613 2.58325 3.51874 2.76281 3.3356C3.06687 3.40795 3.35737 3.51289 3.62759 3.64868C3.72714 3.69872 3.85142 3.65997 3.90291 3.55755C3.95377 3.45635 3.91297 3.33308 3.81177 3.28222C3.5869 3.16921 3.34947 3.07597 3.103 3.00249C3.39002 2.73297 3.68536 2.48313 3.98489 2.25598C4.53357 2.32073 5.0167 2.50547 5.42166 2.80622C5.63546 2.96503 5.82723 3.15636 5.99164 3.37489C6.25144 3.72021 6.75902 3.76864 7.0761 3.48008C7.35602 3.22535 7.3943 2.80357 7.16516 2.49896C6.91529 2.16681 6.6223 1.87489 6.29434 1.63129C6.09705 1.48478 5.88613 1.35552 5.66396 1.24462C5.83587 1.16797 6.00657 1.10038 6.17526 1.04246C6.63004 0.886359 7.04408 0.808758 7.40507 0.808758C7.875 0.808758 8.25491 0.940336 8.51689 1.20161C8.71686 1.40102 8.81407 1.64146 8.81407 1.93666C8.81407 2.43022 8.53874 3.07323 7.9957 3.84788C7.72428 4.23504 7.38339 4.68725 7.0327 5.05221C5.81077 6.32383 4.33068 7.93813 2.81865 8.7755Z" fill="#06623A"/>
    </g>
    <!-- hortifruti -->
    <g id="hortifruti">
      <path d="M13.3438 8.74999H12.2501V7.43749C12.2503 6.92674 12.145 6.42145 11.9409 5.95328C11.7367 5.48512 11.438 5.06416 11.0636 4.71679C11.3589 3.92655 12.1641 3.23667 12.1726 3.22929C12.2068 3.20032 12.2312 3.16158 12.2426 3.1183C12.254 3.07501 12.2519 3.02926 12.2365 2.98723C12.2211 2.94519 12.1932 2.90889 12.1565 2.88324C12.1198 2.85758 12.0761 2.84379 12.0313 2.84374C11.3989 2.84374 10.849 2.96791 10.388 3.21354C10.475 3.06756 10.5715 2.92743 10.6768 2.79406C10.8636 2.55651 11.0713 2.33618 11.2975 2.13573C11.3317 2.10679 11.3562 2.06805 11.3676 2.02474C11.3791 1.98143 11.377 1.93565 11.3616 1.89357C11.3462 1.8515 11.3183 1.81517 11.2816 1.78949C11.2448 1.76381 11.2011 1.75002 11.1563 1.74999C10.565 1.74999 10.0434 1.86011 9.59933 2.077C9.538 1.61962 9.33057 0.811282 8.62917 0.460598C8.59879 0.445408 8.5653 0.4375 8.53133 0.4375C8.49737 0.4375 8.46388 0.445408 8.4335 0.460598C7.7329 0.810899 7.52509 1.61784 7.46353 2.07552C7.02087 1.85918 6.50013 1.74999 5.90634 1.74999C5.86156 1.75002 5.81787 1.76379 5.78116 1.78944C5.74446 1.81509 5.71651 1.85138 5.70109 1.89342C5.68568 1.93546 5.68353 1.98122 5.69495 2.02452C5.70637 2.06782 5.7308 2.10657 5.76494 2.13554C5.99117 2.336 6.19896 2.55636 6.38581 2.79395C6.49088 2.92698 6.58717 3.06673 6.67404 3.21231C6.21387 2.96753 5.66453 2.84374 5.03134 2.84374C4.98656 2.84377 4.94287 2.85754 4.90616 2.88319C4.86946 2.90884 4.84151 2.94513 4.82609 2.98717C4.81068 3.02921 4.80853 3.07497 4.81995 3.11827C4.83137 3.16157 4.8558 3.20032 4.88994 3.22929C4.89855 3.23659 5.70369 3.92655 5.99906 4.71679C5.62463 5.06416 5.32597 5.48512 5.12181 5.95328C4.91764 6.42145 4.81237 6.92674 4.81259 7.43749V7.46259C4.57122 7.50845 4.25182 7.61299 4.08125 7.74104C4.05701 7.75912 4.03153 7.77548 4.00499 7.78998C4.0626 7.26315 4.16459 6.72571 4.33834 6.46509C4.35471 6.4412 4.36618 6.4143 4.37207 6.38594C4.37797 6.35758 4.37817 6.32833 4.37268 6.2999C4.36718 6.27146 4.35609 6.2444 4.34005 6.22028C4.32401 6.19616 4.30334 6.17547 4.27924 6.1594C4.25514 6.14334 4.22809 6.13222 4.19965 6.12669C4.17122 6.12116 4.14197 6.12133 4.11361 6.1272C4.08525 6.13306 4.05833 6.1445 4.03442 6.16085C4.01051 6.1772 3.99009 6.19814 3.97434 6.22245C3.77601 6.51995 3.63667 7.06518 3.55978 7.84232C3.48634 7.8214 3.4174 7.7871 3.35642 7.74115C3.12569 7.56784 2.62235 7.43749 2.40874 7.43749C1.83682 7.43749 1.32079 7.67068 0.955722 8.0941C0.539632 8.57672 0.361898 9.26266 0.468073 9.97603L0.604792 10.8942C0.689723 11.4764 0.879789 12.0385 1.16572 12.5528C1.52286 13.1926 2.14258 13.5633 2.79814 13.5633C2.95946 13.5632 3.12 13.5409 3.27529 13.4973C3.28027 13.4959 3.28517 13.4943 3.29 13.4925L3.65592 13.3617C3.69664 13.3469 3.74125 13.3469 3.78197 13.3617L4.14786 13.4925C4.1527 13.4943 4.15762 13.4959 4.16257 13.4973C4.31787 13.5409 4.47842 13.5632 4.63975 13.5633C5.11919 13.5633 5.57939 13.3648 5.93182 13.0079C6.67336 13.3701 7.4873 13.5597 8.31259 13.5625C9.6743 13.5625 10.99 13.0469 12.0177 12.1108C12.9994 11.2162 13.5626 10.071 13.5626 8.96874C13.5626 8.91073 13.5395 8.85509 13.4985 8.81406C13.4575 8.77304 13.4019 8.74999 13.3438 8.74999ZM7.6078 7.65351L8.53421 6.7539L9.46247 7.65507L8.53648 8.55312L7.6078 7.65351ZM8.11093 8.74999H6.86022C6.82831 8.66066 6.79059 8.57351 6.74729 8.48911L7.2937 7.95847L8.11093 8.74999ZM9.77646 7.95992L10.5903 8.74999H8.96173L9.77646 7.95992ZM8.84811 6.44896L9.77373 5.55006L10.7028 6.45241L9.77662 7.35046L8.84811 6.44896ZM9.00124 4.19004C9.40314 4.24793 9.79068 4.38044 10.1439 4.58075L9.77373 4.94022L9.00124 4.19004ZM9.45974 5.24515L8.53407 6.14413L7.60889 5.24597L8.53473 4.34688L9.45974 5.24515ZM7.29493 4.94101L6.92196 4.57892C7.2767 4.37831 7.66593 4.24607 8.06944 4.18905L7.29493 4.94101ZM7.29493 5.55077L8.22016 6.44902L7.2934 7.34901L6.3671 6.45186L7.29493 5.55077ZM6.97936 7.65392L6.50175 8.11781C6.49516 8.1099 6.48868 8.10189 6.48195 8.0941C6.18717 7.75005 5.77754 7.52468 5.32914 7.45986L6.05309 6.7568L6.97936 7.65392ZM6.83291 10.8942L6.96962 9.97603C7.00935 9.71471 7.00966 9.44891 6.97055 9.18749H12.2112C12.0851 9.90983 11.658 10.6335 11.0137 11.2041C10.2521 11.8786 9.29286 12.25 8.31259 12.25C7.71646 12.2475 7.12838 12.1122 6.59116 11.8538C6.70361 11.5428 6.78461 11.2213 6.83293 10.8942H6.83291ZM11.4423 8.74999L11.8126 8.39135V8.74999H11.4423ZM11.8126 7.78232L11.0162 8.55361L10.0908 7.65523L11.0169 6.75721L11.8126 7.53V7.78232ZM11.7638 6.87273L11.3311 6.45252L11.5761 6.21484C11.6617 6.42693 11.7246 6.64745 11.7638 6.87273ZM11.3745 5.80086L11.017 6.1475L10.0878 5.24515L10.5177 4.82767C10.8647 5.09236 11.1559 5.42314 11.3745 5.80094V5.80086ZM11.456 3.32308C11.2048 3.60002 10.9018 3.9895 10.7102 4.42574C10.5146 4.28383 10.3057 4.16129 10.0864 4.05986C10.0891 4.02579 10.0933 3.99172 10.0987 3.95764C10.4511 3.62031 10.9059 3.40776 11.456 3.32316V3.32308ZM10.5808 2.22933C10.2256 2.62092 9.76716 3.23741 9.66569 3.89568C9.40828 3.81304 9.14256 3.75894 8.87332 3.73436C8.84767 3.6547 8.81483 3.56458 8.77314 3.46775C9.04173 2.95334 9.56493 2.38625 10.5808 2.22955V2.22933ZM8.53133 0.907996C9.07343 1.26114 9.16779 2.07101 9.18417 2.32714C8.92679 2.51606 8.70553 2.7498 8.53101 3.01716C8.43064 2.86371 8.31494 2.72086 8.18568 2.59081C8.09018 2.49504 7.98751 2.40669 7.87856 2.32654C7.89502 2.06978 7.98966 1.26087 8.53133 0.907996ZM6.48219 2.22988C7.69418 2.418 8.19889 3.19139 8.40479 3.72112C8.06238 3.73244 7.7232 3.79126 7.39698 3.8959C7.39014 3.8515 7.38172 3.80732 7.37171 3.76337L7.37942 3.75623C7.37543 3.75191 7.37122 3.74775 7.36728 3.74349C7.22515 3.14346 6.80977 2.59109 6.48219 2.22988ZM5.60654 3.32305C6.15724 3.40757 6.61175 3.62039 6.9641 3.95816C6.96941 3.99207 6.97359 4.02603 6.97627 4.05994C6.75697 4.16137 6.54806 4.28391 6.3525 4.42582C6.1608 3.98945 5.8578 3.59999 5.60654 3.32305ZM6.54782 4.82551L6.98094 5.24597L6.05273 6.14736L5.6907 5.7967C5.90957 5.41962 6.20087 5.08955 6.54782 4.82551ZM5.48852 6.20998L5.73869 6.4523L5.29755 6.88066C5.337 6.65091 5.40102 6.42605 5.48852 6.20998ZM5.88993 12.3395C5.61264 12.8365 5.13614 13.125 4.63578 13.125C4.51813 13.1249 4.40102 13.1091 4.28759 13.0779L3.92938 12.9497C3.79331 12.9012 3.64463 12.9012 3.50856 12.9497L3.15009 13.0779C2.53212 13.2472 1.88905 12.9512 1.54774 12.3397C1.28759 11.8715 1.11471 11.3599 1.03753 10.8298L0.900816 9.91175C0.813316 9.32435 0.954191 8.76604 1.2871 8.37989C1.42589 8.21899 1.59822 8.09041 1.79199 8.00318C1.98575 7.91596 2.19627 7.87221 2.40874 7.87499C2.5477 7.87499 2.95398 7.98598 3.09378 8.09101C3.22089 8.18685 3.36818 8.25244 3.52445 8.28277C3.51368 8.45689 3.50766 8.60994 3.5043 8.72713C3.31524 8.6847 3.21992 8.59782 3.21475 8.59296L3.21716 8.59534C3.19688 8.57484 3.17274 8.55855 3.14614 8.54741C3.11954 8.53627 3.091 8.5305 3.06217 8.53043C3.03333 8.53036 3.00476 8.536 2.97811 8.54701C2.95146 8.55803 2.92725 8.5742 2.90687 8.59461C2.88649 8.61501 2.87035 8.63924 2.85937 8.66591C2.84839 8.69258 2.8428 8.72115 2.8429 8.74999C2.84301 8.77882 2.84882 8.80736 2.85999 8.83394C2.87116 8.86053 2.88748 8.88464 2.90801 8.90489C2.93735 8.9341 3.20598 9.18749 3.71884 9.18749C4.23213 9.18749 4.50087 8.93361 4.52977 8.90468C4.55008 8.88436 4.5662 8.86025 4.57719 8.83371C4.58818 8.80717 4.59384 8.77872 4.59384 8.74999C4.59384 8.72126 4.58818 8.69282 4.57719 8.66628C4.5662 8.63974 4.55008 8.61562 4.52977 8.59531C4.50946 8.575 4.48534 8.55888 4.4588 8.54789C4.43226 8.53689 4.40381 8.53124 4.37509 8.53124C4.34636 8.53124 4.31791 8.53689 4.29137 8.54789C4.26483 8.55888 4.24072 8.575 4.2204 8.59531C4.21925 8.59646 4.12582 8.68139 3.9415 8.72489C3.9453 8.59274 3.95221 8.438 3.96318 8.27186C4.101 8.23792 4.23051 8.17637 4.34386 8.09093C4.48367 7.98598 4.88994 7.87491 5.0289 7.87491C5.24137 7.87211 5.45188 7.91584 5.64566 8.00305C5.83943 8.09025 6.01177 8.21881 6.15057 8.3797C6.48348 8.76582 6.62427 9.32416 6.53685 9.91156L6.40014 10.8296C6.32297 11.3597 6.15009 11.8713 5.88993 12.3395ZM11.7229 11.7874C10.7761 12.6499 9.56493 13.125 8.31259 13.125C7.58624 13.1225 6.86908 12.9624 6.21062 12.6557C6.23181 12.6222 6.2524 12.588 6.27203 12.5528C6.32586 12.4563 6.37626 12.3582 6.42321 12.2582C7.0138 12.5384 7.6589 12.685 8.31259 12.6875C9.39983 12.6875 10.4621 12.277 11.3038 11.5316C12.0434 10.8765 12.5274 10.0321 12.6542 9.18749H13.1167C13.0471 10.0995 12.5479 11.0359 11.7229 11.7874Z" fill="#06623A"/>
      <path d="M11.1562 10.0625C11.2771 10.0625 11.375 9.96456 11.375 9.84375C11.375 9.72294 11.2771 9.625 11.1562 9.625C11.0354 9.625 10.9375 9.72294 10.9375 9.84375C10.9375 9.96456 11.0354 10.0625 11.1562 10.0625Z" fill="#06623A"/>
      <path d="M10.0625 11.1562C10.1833 11.1562 10.2812 11.0583 10.2812 10.9375C10.2812 10.8167 10.1833 10.7188 10.0625 10.7188C9.94169 10.7188 9.84375 10.8167 9.84375 10.9375C9.84375 11.0583 9.94169 11.1562 10.0625 11.1562Z" fill="#06623A"/>
      <path d="M8.96875 10.5C9.08956 10.5 9.1875 10.4021 9.1875 10.2812C9.1875 10.1604 9.08956 10.0625 8.96875 10.0625C8.84794 10.0625 8.75 10.1604 8.75 10.2812C8.75 10.4021 8.84794 10.5 8.96875 10.5Z" fill="#06623A"/>
      <path d="M7.65625 10.5C7.77706 10.5 7.875 10.4021 7.875 10.2812C7.875 10.1604 7.77706 10.0625 7.65625 10.0625C7.53544 10.0625 7.4375 10.1604 7.4375 10.2812C7.4375 10.4021 7.53544 10.5 7.65625 10.5Z" fill="#06623A"/>
      <path d="M8.3125 11.8125C8.43331 11.8125 8.53125 11.7146 8.53125 11.5938C8.53125 11.4729 8.43331 11.375 8.3125 11.375C8.19169 11.375 8.09375 11.4729 8.09375 11.5938C8.09375 11.7146 8.19169 11.8125 8.3125 11.8125Z" fill="#06623A"/>
    </g>
    <!-- carne -->
    <g id="carne">
      <path d="M10.3463 2.0625C10.3179 2.0625 10.2896 2.06291 10.2634 2.06359C9.16904 2.08194 8.42373 2.45901 7.87494 2.95038V1.40625C7.87494 1.36563 7.86362 1.32581 7.84227 1.29125C7.82091 1.2567 7.79036 1.22877 7.75402 1.21061C7.65974 1.16346 6.81912 0.75 6.34369 0.75C6.05513 0.75 5.6905 0.806738 5.3379 0.86159C4.99318 0.915211 4.63629 0.970582 4.37655 0.96875C4.1473 0.967082 3.78593 0.913871 3.4365 0.86241C3.06113 0.807148 2.67295 0.75 2.40619 0.75C1.93076 0.75 1.09016 1.16346 0.995853 1.21061C0.959521 1.22877 0.928965 1.2567 0.907609 1.29125C0.886253 1.32581 0.874941 1.36563 0.874939 1.40625V4.90625C0.87494 4.94353 0.88447 4.9802 0.902625 5.01276C0.920779 5.04532 0.946954 5.07271 0.978666 5.09231C1.01038 5.11191 1.04658 5.12309 1.08382 5.12477C1.12106 5.12645 1.15812 5.11859 1.19147 5.10192C1.42225 4.98664 2.09029 4.6875 2.40619 4.6875C2.64094 4.6875 3.01297 4.74219 3.37276 4.79526C3.7538 4.85137 4.11378 4.90434 4.37333 4.90625C4.66932 4.90877 5.04325 4.85017 5.40514 4.79389C5.74133 4.74159 6.08895 4.6875 6.34369 4.6875C6.40973 4.68929 6.47539 4.69801 6.53961 4.7135C6.40658 4.90745 6.27902 5.06777 6.14547 5.17014C5.79764 5.43672 5.20983 5.5689 4.39599 5.56277C4.37866 5.56277 4.36381 5.56253 4.35167 5.56253C3.64073 5.56253 3.06244 6.15132 3.06244 6.87503V7.75003C3.06056 7.92073 3.09635 8.08974 3.16724 8.24504C3.23813 8.40033 3.34239 8.53808 3.4726 8.64849C3.28763 8.68412 3.11247 8.75905 2.95895 8.86822C2.80544 8.97738 2.67716 9.11823 2.58278 9.28125H2.12067L1.52025 8.60758L1.51645 8.60343C1.45917 8.54126 1.38963 8.49165 1.31221 8.45771C1.23479 8.42378 1.15118 8.40625 1.06665 8.40625C0.982116 8.40625 0.898504 8.42378 0.821085 8.45771C0.743667 8.49165 0.674123 8.54126 0.616842 8.60343C0.503803 8.72719 0.440393 8.88831 0.438753 9.05592C0.437114 9.22353 0.49736 9.38586 0.607955 9.51181L0.927931 9.9375L0.60801 10.3632C0.497411 10.4891 0.437165 10.6515 0.438809 10.8191C0.440454 10.9867 0.503874 11.1478 0.616924 11.2716C0.674205 11.3337 0.743749 11.3834 0.821167 11.4173C0.898586 11.4512 0.982198 11.4687 1.06673 11.4687C1.15126 11.4687 1.23487 11.4512 1.31229 11.4173C1.38971 11.3834 1.45925 11.3337 1.51653 11.2716L1.52033 11.2674L2.12069 10.5938H2.5828C2.69796 10.7931 2.86353 10.9587 3.06291 11.0739C3.26228 11.1891 3.48844 11.2498 3.71869 11.25C4.1677 11.25 4.69872 11.5174 5.26088 11.8005C5.97031 12.1576 6.77435 12.5625 7.65619 12.5625C8.03851 12.5624 8.4162 12.4789 8.76287 12.3177C9.10954 12.1564 9.41681 11.9214 9.66321 11.6291C9.90961 11.3368 10.0892 10.9942 10.1894 10.6252C10.2896 10.2563 10.308 9.86987 10.2434 9.49305C12.3289 9.40326 13.5624 8.43906 13.5624 6.875V5.34375C13.5624 3.53447 12.1197 2.0625 10.3463 2.0625ZM2.02261 10.1562C1.99177 10.1562 1.96128 10.1628 1.93313 10.1754C1.90499 10.188 1.87984 10.2064 1.85931 10.2294L1.1959 10.9738C1.17944 10.992 1.15932 11.0066 1.13686 11.0165C1.11439 11.0263 1.09009 11.0314 1.06555 11.0312C1.041 11.0311 1.01677 11.0257 0.994435 11.0155C0.9721 11.0054 0.952167 10.9906 0.935943 10.9722C0.896716 10.9282 0.875035 10.8714 0.875035 10.8125C0.875035 10.7536 0.896716 10.6967 0.935943 10.6528C0.941394 10.647 0.946516 10.6409 0.951283 10.6345L1.37642 10.0689C1.40491 10.031 1.42032 9.98491 1.42032 9.9375C1.42032 9.89009 1.40491 9.84396 1.37642 9.80606L0.951283 9.24043C0.946516 9.23405 0.941394 9.22796 0.935943 9.22216C0.896716 9.17822 0.875035 9.12139 0.875035 9.06249C0.875035 9.00359 0.896716 8.94675 0.935943 8.90281C0.952167 8.88439 0.9721 8.86961 0.994435 8.85944C1.01677 8.84926 1.041 8.84392 1.06555 8.84376C1.09009 8.8436 1.11439 8.84863 1.13686 8.85852C1.15932 8.86841 1.17944 8.88294 1.1959 8.90114L1.85931 9.64555C1.87984 9.66857 1.90499 9.687 1.93313 9.69961C1.96128 9.71223 1.99177 9.71875 2.02261 9.71875H2.42476C2.4 9.86353 2.4 10.0115 2.42476 10.1562H2.02261ZM1.31244 2.85632C1.60294 2.72105 2.13461 2.5 2.40619 2.5C2.64094 2.5 3.01297 2.55469 3.37276 2.60776C3.7538 2.66387 4.11378 2.71684 4.37333 2.71875C4.66932 2.72061 5.04325 2.66267 5.40514 2.60639C5.74133 2.55409 6.08895 2.5 6.34369 2.5C6.61527 2.5 7.14694 2.72105 7.43744 2.85632V3.25132C7.12504 3.11559 6.65571 2.9375 6.34369 2.9375C6.05513 2.9375 5.6905 2.99424 5.3379 3.04909C4.99318 3.10271 4.63629 3.1586 4.37655 3.15625C4.1473 3.15458 3.78593 3.10137 3.4365 3.04991C3.06113 2.99465 2.67295 2.9375 2.40619 2.9375C2.09417 2.9375 1.62484 3.11559 1.31244 3.25135V2.85632ZM2.40619 1.1875C2.64094 1.1875 3.01297 1.24219 3.37276 1.29526C3.7538 1.35137 4.11378 1.40434 4.37333 1.40625C4.66932 1.40877 5.04325 1.35017 5.40514 1.29389C5.74133 1.24159 6.08895 1.1875 6.34369 1.1875C6.61521 1.1875 7.14688 1.40852 7.43744 1.54379V2.37632C7.12504 2.24059 6.65571 2.0625 6.34369 2.0625C6.05513 2.0625 5.6905 2.11924 5.3379 2.17409C4.99318 2.22771 4.63629 2.28371 4.37655 2.28125C4.1473 2.27958 3.78593 2.22637 3.4365 2.17491C3.06113 2.11965 2.67295 2.0625 2.40619 2.0625C2.09417 2.0625 1.62484 2.24059 1.31244 2.37635V1.54379C1.60299 1.40852 2.13467 1.1875 2.40619 1.1875ZM5.3379 4.36159C4.99318 4.41521 4.63629 4.47096 4.37655 4.46875C4.1473 4.46708 3.78593 4.41387 3.4365 4.36241C3.06113 4.30715 2.67295 4.25 2.40619 4.25C2.09417 4.25 1.62484 4.42809 1.31244 4.56382V3.73132C1.60294 3.59605 2.13461 3.375 2.40619 3.375C2.64094 3.375 3.01297 3.42969 3.37276 3.48276C3.7538 3.53887 4.11378 3.59184 4.37333 3.59375C4.66932 3.59616 5.04325 3.5377 5.40514 3.48139C5.74133 3.42909 6.08895 3.375 6.34369 3.375C6.56378 3.375 6.95471 3.5202 7.2497 3.64726C7.07762 3.87881 6.92887 4.11145 6.79183 4.32651C6.61226 4.27527 6.46499 4.24995 6.34369 4.24995C6.05513 4.25 5.6905 4.30674 5.3379 4.36159ZM4.35167 6C4.36291 6 4.37666 6 4.39269 6.00022C5.30468 6.00656 5.98458 5.84455 6.41153 5.51738C6.68549 5.30747 6.90213 4.96742 7.15301 4.5737C7.7327 3.66386 8.4543 2.5315 10.2727 2.50104C10.2972 2.50042 10.3217 2.50009 10.3463 2.50005C11.8785 2.5 13.1249 3.7757 13.1249 5.34375C13.1249 6.12696 12.8262 6.83945 12.2838 7.34999C11.7018 7.8979 10.8837 8.1875 9.91817 8.1875H9.61091C9.36514 7.91215 9.06395 7.69186 8.72708 7.54107C8.39021 7.39027 8.02527 7.31238 7.65619 7.3125C6.85228 7.3125 6.11326 7.64883 5.45152 7.97889C5.10844 7.92147 4.76576 7.84874 4.40581 7.75681C3.61752 7.55548 3.49994 7.11789 3.49994 6.875C3.49994 6.39252 3.88201 6 4.35167 6ZM4.163 8.55407C3.8577 8.43433 3.52496 8.20954 3.50128 7.79703C3.70362 7.96656 3.97159 8.09743 4.29745 8.18069C4.46936 8.22461 4.63741 8.26409 4.80363 8.29996C4.59708 8.40132 4.38287 8.48628 4.163 8.55407ZM7.65619 12.125C6.87829 12.125 6.15611 11.7613 5.45775 11.4097C4.84777 11.1026 4.27163 10.8125 3.71869 10.8125C3.48662 10.8125 3.26407 10.7203 3.09997 10.5562C2.93588 10.3921 2.84369 10.1696 2.84369 9.9375C2.84369 9.70544 2.93588 9.48288 3.09997 9.31878C3.26407 9.15469 3.48662 9.0625 3.71869 9.0625C4.27163 9.0625 4.84777 8.77241 5.45775 8.46529C6.15611 8.11367 6.87829 7.75 7.65619 7.75C8.23635 7.75 8.79275 7.98047 9.20298 8.3907C9.61322 8.80094 9.84369 9.35734 9.84369 9.9375C9.84369 10.5177 9.61322 11.0741 9.20298 11.4843C8.79275 11.8945 8.23635 12.125 7.65619 12.125ZM10.13 9.05944C10.0763 8.90878 10.009 8.76335 9.92875 8.625C11.0034 8.62284 11.9212 8.29231 12.5838 7.66865C12.794 7.47091 12.9752 7.24445 13.1219 6.996C13.0578 8.26365 11.9787 9.00718 10.13 9.05944Z" fill="#06623A"/>
      <path d="M10.7187 6.87497C11.0216 6.87497 11.3176 6.78516 11.5695 6.61691C11.8213 6.44865 12.0175 6.2095 12.1334 5.9297C12.2493 5.6499 12.2797 5.34202 12.2206 5.04499C12.1615 4.74795 12.0156 4.47511 11.8015 4.26096C11.5874 4.04681 11.3145 3.90098 11.0175 3.84189C10.7204 3.78281 10.4126 3.81313 10.1328 3.92903C9.85296 4.04493 9.61382 4.24119 9.44556 4.493C9.27731 4.74482 9.1875 5.04087 9.1875 5.34372C9.18796 5.74969 9.34943 6.13891 9.63649 6.42597C9.92356 6.71304 10.3128 6.87451 10.7187 6.87497ZM10.7187 4.24997C10.9351 4.24997 11.1465 4.31412 11.3264 4.4343C11.5063 4.55448 11.6465 4.7253 11.7292 4.92516C11.812 5.12502 11.8337 5.34493 11.7915 5.5571C11.7493 5.76927 11.6451 5.96415 11.4921 6.11712C11.3392 6.27008 11.1443 6.37425 10.9321 6.41645C10.72 6.45866 10.5 6.437 10.3002 6.35421C10.1003 6.27143 9.92951 6.13124 9.80933 5.95138C9.68915 5.77151 9.625 5.56004 9.625 5.34372C9.62532 5.05374 9.74066 4.77573 9.94571 4.57068C10.1508 4.36563 10.4288 4.2503 10.7187 4.24997Z" fill="#06623A"/>
    </g>
    <!-- frio -->
    <g id="frio">
      <path d="M11.2835 4.57831H10.0938C9.98053 4.57831 9.88867 4.67017 9.88867 4.78339C9.88867 4.89661 9.98053 4.98846 10.0938 4.98846H11.2835C11.3967 4.98846 11.4886 4.89661 11.4886 4.78339C11.4886 4.67017 11.3967 4.57831 11.2835 4.57831Z" fill="#06623A"/>
      <path d="M10.0938 3.32639H10.6339C10.7472 3.32639 10.839 3.23453 10.839 3.12131C10.839 3.00798 10.7472 2.91623 10.6339 2.91623H10.0938C9.98053 2.91623 9.88867 3.00798 9.88867 3.12131C9.88867 3.23453 9.98053 3.32639 10.0938 3.32639Z" fill="#06623A"/>
      <path d="M10.0938 1.66428H10.8254C10.9386 1.66428 11.0305 1.57252 11.0305 1.4592C11.0305 1.34598 10.9386 1.25412 10.8254 1.25412H10.0938C9.98053 1.25412 9.88867 1.34598 9.88867 1.4592C9.88867 1.57252 9.98053 1.66428 10.0938 1.66428Z" fill="#06623A"/>
      <path d="M10.8254 7.90262H10.0938C9.98053 7.90262 9.88867 7.99437 9.88867 8.1077C9.88867 8.22092 9.98053 8.31277 10.0938 8.31277H10.8254C10.9386 8.31277 11.0305 8.22092 11.0305 8.1077C11.0305 7.99437 10.9386 7.90262 10.8254 7.90262Z" fill="#06623A"/>
      <path d="M10.0938 6.65067H10.6339C10.7472 6.65067 10.839 6.55892 10.839 6.44559C10.839 6.33237 10.7472 6.24051 10.6339 6.24051H10.0938C9.98053 6.24051 9.88867 6.33237 9.88867 6.44559C9.88867 6.55892 9.98053 6.65067 10.0938 6.65067Z" fill="#06623A"/>
      <path d="M3.97956 4.45184C4.3188 4.633 4.3392 4.67401 4.42945 4.67401C4.64051 4.67401 4.71325 4.39267 4.52985 4.28992L4.17983 4.09402L4.43725 3.9886C4.54203 3.94566 4.59223 3.82582 4.54929 3.72104C4.50636 3.61626 4.38662 3.56616 4.28184 3.60899L3.72268 3.838L2.9891 3.4272L3.72268 3.0164C4.29765 3.24648 4.28889 3.26079 4.35949 3.26079C4.58347 3.26079 4.64457 2.95082 4.43725 2.86591L4.17994 2.76048L4.52985 2.56448C4.62866 2.50926 4.66401 2.38419 4.60868 2.28539C4.55335 2.18658 4.42838 2.15134 4.32948 2.20667L3.97956 2.40256L4.02421 2.12805C4.04237 2.01633 3.96642 1.9109 3.85459 1.89275C3.74297 1.87459 3.63744 1.95042 3.61929 2.06226L3.52241 2.65858L2.77441 3.07739V2.22012L3.24737 1.84425C3.33602 1.77376 3.35076 1.64484 3.28037 1.55608C3.20988 1.46742 3.08085 1.45268 2.9922 1.52318L2.77441 1.69621V1.29514C2.77441 1.18192 2.68266 1.09006 2.56933 1.09006C2.45611 1.09006 2.36425 1.18192 2.36425 1.29514V1.69621L2.14657 1.52318C2.05791 1.45268 1.92889 1.46742 1.85839 1.55618C1.7879 1.64484 1.80264 1.77376 1.8914 1.84425L2.36425 2.22023V3.07739L1.61636 2.65858L1.51937 2.06226C1.50121 1.95042 1.3959 1.87459 1.28406 1.89275C1.17234 1.9109 1.0964 2.01633 1.11456 2.12805L1.1592 2.40256L0.809181 2.20667C0.71038 2.15134 0.585411 2.18658 0.530082 2.28539C0.474754 2.38419 0.510002 2.50926 0.608802 2.56448L0.958824 2.76048L0.701408 2.86591C0.596626 2.90884 0.546531 3.02858 0.589363 3.13347C0.632408 3.23836 0.75225 3.28835 0.856926 3.24551L1.41598 3.01651L2.14956 3.42731L1.41598 3.838L0.856926 3.60899C0.752037 3.56616 0.632301 3.61626 0.589363 3.72115C0.546424 3.82593 0.596626 3.94566 0.701408 3.9886L0.958824 4.09402L0.608802 4.29002C0.425407 4.39267 0.498252 4.67401 0.709205 4.67401C0.799461 4.67401 0.820076 4.63289 1.1592 4.45184L1.11456 4.72646C1.09426 4.85121 1.1906 4.96443 1.31728 4.96443C1.41598 4.96443 1.50303 4.89287 1.51937 4.79225L1.61636 4.19592L2.36425 3.77711V4.63428L1.8914 5.01025C1.80264 5.08064 1.7879 5.20967 1.85839 5.29832C1.92889 5.38708 2.05791 5.40182 2.14657 5.33133L2.36425 5.15829V5.55937C2.36425 5.67259 2.45611 5.76445 2.56933 5.76445C2.68266 5.76445 2.77441 5.67259 2.77441 5.55937V5.15829C2.96378 5.29544 3.00459 5.37587 3.11962 5.37587C3.31295 5.37576 3.39936 5.13095 3.24737 5.01025L2.77441 4.63428V3.77711L3.52241 4.19592L3.61929 4.79225C3.63563 4.89287 3.72268 4.96443 3.82148 4.96443C3.94837 4.96443 4.0444 4.85089 4.02421 4.72646L3.97956 4.45184Z" fill="#06623A"/>
      <path d="M9.20337 8.47122V1.855C9.20337 0.832169 8.37131 0 7.34848 0C6.32565 0 5.49348 0.832169 5.49348 1.855V8.47122C4.72722 9.05164 4.27295 9.9606 4.27295 10.9245C4.27295 12.6203 5.65263 14 7.34848 14C9.04433 14 10.424 12.6203 10.424 10.9245C10.424 9.9606 9.96974 9.05164 9.20337 8.47122ZM7.34848 13.5898C5.87875 13.5898 4.68311 12.3942 4.68311 10.9245C4.68311 10.058 5.10683 9.24251 5.81659 8.74316C5.87117 8.70471 5.90364 8.64212 5.90364 8.57536V1.855C5.90364 1.05829 6.55177 0.410156 7.34848 0.410156C8.14508 0.410156 8.79321 1.05829 8.79321 1.855V8.57536C8.79321 8.64212 8.82568 8.70471 8.88026 8.74316C9.59013 9.24261 10.0139 10.058 10.0139 10.9245C10.0139 12.3942 8.8181 13.5898 7.34848 13.5898Z" fill="#06623A"/>
      <path d="M8.24603 8.8777V1.85506C8.24603 1.35999 7.84335 0.957306 7.34839 0.957306C6.85342 0.957306 6.45064 1.35999 6.45064 1.85506V2.49005C6.45064 2.60327 6.5425 2.69513 6.65572 2.69513C6.76904 2.69513 6.86079 2.60327 6.86079 2.49005V1.85506C6.86079 1.58621 7.07954 1.36746 7.34839 1.36746C7.61723 1.36746 7.83588 1.58621 7.83588 1.85506V7.93231H6.86079V3.31229C6.86079 3.19896 6.76904 3.10721 6.65572 3.10721C6.5425 3.10721 6.45064 3.19896 6.45064 3.31229V8.8777C5.67358 9.22794 5.16089 10.012 5.16089 10.8724C5.16089 12.0786 6.14217 13.0599 7.34828 13.0599C8.5545 13.0599 9.53578 12.0786 9.53578 10.8724C9.53589 10.012 9.02309 9.22794 8.24603 8.8777ZM7.34839 12.6497C6.36829 12.6497 5.57104 11.8525 5.57104 10.8724C5.57104 10.1341 6.03568 9.46484 6.72739 9.20721C6.8076 9.17731 6.8609 9.10062 6.8609 9.01506V8.34247H7.83588V9.01506C7.83588 9.10062 7.88918 9.17731 7.96939 9.20721C8.6611 9.46484 9.12573 10.134 9.12573 10.8724C9.12573 11.8525 8.32838 12.6497 7.34839 12.6497Z" fill="#06623A"/>
    </g>
    <!-- laticinio -->
    <g id="laticinio">
      <path d="M13.6181 6.01639C13.839 5.97444 13.9992 5.78169 14 5.55679V4.83355C14 4.82846 13.9974 4.82423 13.9971 4.81922C13.9957 4.80038 13.9919 4.78182 13.9859 4.76391C13.9793 4.73394 13.9642 4.70646 13.9425 4.68472C13.9377 4.67892 13.9344 4.67203 13.929 4.66675C13.9089 4.64693 13.8854 4.63096 13.8596 4.61961L13.858 4.6189L13.857 4.61846L8.28923 2.20035C8.0042 2.08086 7.67451 2.16319 7.47917 2.40269C7.25427 2.66888 6.89984 2.78766 6.55996 2.71075C6.22007 2.63383 5.95131 2.37404 5.86294 2.03697C5.83349 1.92106 5.826 1.80064 5.84084 1.68196C5.88257 1.37842 5.71678 1.08429 5.43547 0.962824L4.31164 0.475176C4.09388 0.379445 3.84688 0.37477 3.62567 0.462188C2.73298 0.810383 1.93982 1.37306 1.31625 2.10054C0.689965 2.83349 0.250633 3.70729 0.035875 4.64715L0.00557812 4.7825C0.00522266 4.79013 0.00525 4.79778 0.0056875 4.80539C0.00317187 4.81463 0.00128516 4.82404 0 4.83352V10.6668C0.000546875 11.1821 0.418086 11.5996 0.933324 11.6002H7.25668C7.48084 11.6001 7.67345 11.4411 7.71594 11.221C7.78446 10.898 8.06955 10.6669 8.39975 10.6668C8.72993 10.6667 9.01521 10.8976 9.08392 11.2205C9.12628 11.4408 9.31897 11.6001 9.5433 11.6002H13.0666C13.5819 11.5996 13.9994 11.1821 14 10.6668V7.84361C13.9995 7.61941 13.8403 7.42697 13.6201 7.38445C13.2977 7.31554 13.0671 7.03092 13.0666 6.70124C13.0662 6.37158 13.2959 6.08628 13.6181 6.01639ZM1.67032 2.40452C2.24413 1.73498 2.97407 1.21712 3.79561 0.896734C3.90214 0.854926 4.02093 0.857223 4.12579 0.903105L5.24984 1.39097C5.33982 1.43084 5.39216 1.5258 5.37778 1.62318C5.35568 1.79935 5.36665 1.9781 5.41015 2.15023C5.54105 2.65696 5.94357 3.04844 6.45378 3.16514C6.96399 3.28185 7.49667 3.1043 7.83486 2.70487C7.89707 2.62207 8.00677 2.59076 8.10329 2.6283L12.6436 4.60023H0.527598C0.736477 3.79091 1.1273 3.03994 1.67032 2.40452ZM13.5333 7.84363V10.6669C13.533 10.9245 13.3243 11.1333 13.0666 11.1336L9.54064 11.1253C9.42632 10.5845 8.94808 10.1982 8.3953 10.2002C7.84251 10.2022 7.36706 10.5919 7.25662 11.1336H0.933297C0.675691 11.1333 0.466922 10.9245 0.466621 10.6669V5.06687H13.5294L13.5212 5.55975C12.9815 5.67593 12.597 6.1545 12.6 6.7066C12.6029 7.2587 12.9924 7.73316 13.5333 7.84363Z" fill="#06623A"/>
      <path d="M11.2 9.73365C11.2005 10.2489 11.618 10.6664 12.1333 10.667C12.6487 10.667 13.0666 10.2491 13.0666 9.73365C13.0666 9.21819 12.6487 8.80032 12.1333 8.80032C11.6178 8.80032 11.2 9.21819 11.2 9.73365ZM12.6 9.73365C12.6 9.99139 12.391 10.2003 12.1333 10.2003C11.8755 10.2003 11.6666 9.99139 11.6666 9.73365C11.6669 9.47604 11.8757 9.26727 12.1333 9.26697C12.391 9.26697 12.6 9.47591 12.6 9.73365Z" fill="#06623A"/>
      <path d="M5.3668 6.70032C4.5936 6.70032 3.9668 7.32712 3.9668 8.10032C3.96764 8.87316 4.59395 9.49947 5.3668 9.50032C6.14 9.50032 6.7668 8.87352 6.7668 8.10032C6.7668 7.32712 6.14 6.70032 5.3668 6.70032ZM5.3668 9.03364C4.85134 9.03364 4.43347 8.61577 4.43347 8.10032C4.43402 7.58508 4.85156 7.16754 5.3668 7.16699C5.88225 7.16699 6.30012 7.58486 6.30012 8.10032C6.30012 8.61577 5.88225 9.03364 5.3668 9.03364Z" fill="#06623A"/>
      <path d="M8.86663 5.76682C8.2223 5.76682 7.69995 6.28914 7.69995 6.93349C7.70072 7.57752 8.2226 8.0994 8.86663 8.10017C9.51096 8.10017 10.0333 7.57782 10.0333 6.93349C10.0333 6.28916 9.51096 5.76682 8.86663 5.76682ZM8.86663 7.63349C8.48004 7.63349 8.16663 7.32011 8.16663 6.93349C8.16704 6.54707 8.48021 6.2339 8.86663 6.23349C9.25321 6.23349 9.56663 6.54688 9.56663 6.93349C9.56663 7.32011 9.25321 7.63349 8.86663 7.63349Z" fill="#06623A"/>
      <path d="M2.7999 6.93346C2.7999 6.54687 2.48649 6.23346 2.0999 6.23346C1.71332 6.23346 1.3999 6.54685 1.3999 6.93346C1.40031 7.31988 1.71348 7.63305 2.0999 7.63346C2.48649 7.63346 2.7999 7.32007 2.7999 6.93346ZM1.86658 6.93346C1.86672 6.80464 1.97109 6.70024 2.0999 6.70014C2.22877 6.70014 2.33323 6.80462 2.33323 6.93346C2.33323 7.06233 2.22877 7.16678 2.0999 7.16678C1.97103 7.16678 1.86658 7.06233 1.86658 6.93346Z" fill="#06623A"/>
      <path d="M2.5667 9.03348C2.18028 9.03389 1.86711 9.34706 1.8667 9.73348C1.8667 10.1201 2.18009 10.4335 2.5667 10.4335C2.95328 10.4335 3.2667 10.1201 3.2667 9.73348C3.2667 9.34689 2.95328 9.03348 2.5667 9.03348ZM2.5667 9.9668C2.43783 9.9668 2.33337 9.86235 2.33337 9.73348C2.33337 9.60461 2.43786 9.50015 2.5667 9.50015C2.69552 9.50029 2.79991 9.60466 2.80002 9.73348C2.80002 9.86235 2.69554 9.9668 2.5667 9.9668Z" fill="#06623A"/>
      <path d="M8.33236 9.10117C8.23882 9.01482 8.09461 9.01482 8.00104 9.10117C7.98039 9.12384 7.96377 9.1499 7.95193 9.1782C7.92716 9.23469 7.92716 9.29898 7.95193 9.35547C7.97326 9.41401 8.01939 9.46014 8.07793 9.48147C8.13445 9.50638 8.19882 9.50638 8.25531 9.48147C8.28358 9.46963 8.30964 9.45306 8.33233 9.43247C8.37545 9.38809 8.39971 9.32873 8.40001 9.26685C8.4008 9.23625 8.3944 9.2059 8.38133 9.1782C8.36952 9.14992 8.35295 9.12387 8.33236 9.10117Z" fill="#06623A"/>
      <path d="M5.83324 6.23364C5.9113 6.23446 5.98448 6.19576 6.02779 6.1308C6.0711 6.06583 6.07865 5.98341 6.04789 5.91166C6.03659 5.88311 6.01997 5.85697 5.99889 5.83463C5.93181 5.76832 5.83138 5.74897 5.74448 5.78563C5.71566 5.79635 5.68946 5.81303 5.66756 5.83463C5.64692 5.8573 5.63029 5.88336 5.61845 5.91166C5.58777 5.98344 5.5954 6.06583 5.63871 6.13077C5.68203 6.19571 5.7552 6.2344 5.83324 6.23364Z" fill="#06623A"/>
      <path d="M11.4333 7.40033C11.5114 7.40115 11.5846 7.36246 11.6279 7.29749C11.6712 7.23252 11.6787 7.15011 11.648 7.07836C11.6138 6.98957 11.5284 6.931 11.4333 6.931C11.3381 6.931 11.2528 6.98957 11.2186 7.07836C11.1879 7.15013 11.1955 7.23252 11.2388 7.29746C11.2821 7.36238 11.3553 7.40107 11.4333 7.40033Z" fill="#06623A"/>
    </g>
    <!-- higiene -->
    <g id="higiene">
      <path d="M7.62508 13.9999H2.37508C1.57125 13.9999 0.916748 13.346 0.916748 12.5416V6.12492C0.916748 5.32051 1.57125 4.6666 2.37508 4.6666H7.62508C8.42892 4.6666 9.08342 5.32051 9.08342 6.12492V12.5416C9.08342 13.346 8.42892 13.9999 7.62508 13.9999ZM2.37508 5.24993C1.89266 5.24993 1.50008 5.64251 1.50008 6.12492V12.5416C1.50008 13.024 1.89266 13.4166 2.37508 13.4166H7.62508C8.1075 13.4166 8.50008 13.024 8.50008 12.5416V6.12492C8.50008 5.64251 8.1075 5.24993 7.62508 5.24993H2.37508Z" fill="#06623A"/>
      <path d="M7.04173 5.24992C6.88073 5.24992 6.75007 5.11926 6.75007 4.95826V3.79159C6.75007 3.63118 6.6194 3.49993 6.4584 3.49993H3.54175C3.38075 3.49993 3.25008 3.63118 3.25008 3.79159V4.95826C3.25008 5.11926 3.11941 5.24992 2.95841 5.24992C2.79741 5.24992 2.66675 5.11926 2.66675 4.95826V3.79159C2.66675 3.30918 3.05933 2.9166 3.54175 2.9166H6.4584C6.94082 2.9166 7.3334 3.30918 7.3334 3.79159V4.95826C7.3334 5.11926 7.20273 5.24992 7.04173 5.24992Z" fill="#06623A"/>
      <path d="M7.0416 1.75H0.624934C0.507101 1.75 0.400351 1.67883 0.355434 1.56975C0.309934 1.46125 0.335017 1.33525 0.418434 1.25183C1.22635 0.445083 2.30027 0 3.44185 0H7.0416C7.52402 0 7.9166 0.392583 7.9166 0.875C7.9166 1.35742 7.52402 1.75 7.0416 1.75ZM1.44802 1.16667H7.0416C7.2026 1.16667 7.33327 1.03542 7.33327 0.875C7.33327 0.714583 7.2026 0.583333 7.0416 0.583333H3.44185C2.72377 0.583333 2.03718 0.786917 1.44802 1.16667Z" fill="#06623A"/>
      <path d="M5.58341 3.5C5.42241 3.5 5.29175 3.36933 5.29175 3.20833V1.60417C5.29175 1.44317 5.42241 1.3125 5.58341 1.3125C5.74441 1.3125 5.87507 1.44317 5.87507 1.60417V3.20833C5.87507 3.36933 5.74441 3.5 5.58341 3.5Z" fill="#06623A"/>
      <path d="M4.41667 3.5C4.25567 3.5 4.125 3.36933 4.125 3.20833V1.60417C4.125 1.44317 4.25567 1.3125 4.41667 1.3125C4.57767 1.3125 4.70834 1.44317 4.70834 1.60417V3.20833C4.70834 3.36933 4.57767 3.5 4.41667 3.5Z" fill="#06623A"/>
      <path d="M5 12.2501C4.03517 12.2501 3.25 11.4649 3.25 10.5001C3.25 9.63731 4.59692 7.39381 4.75092 7.14006C4.8565 6.96564 5.14408 6.96564 5.24908 7.14006C5.40308 7.39381 6.75 9.63731 6.75 10.5001C6.75 11.4649 5.96483 12.2501 5 12.2501ZM5 7.86573C4.47267 8.78506 3.83333 10.0474 3.83333 10.5001C3.83333 11.1435 4.35658 11.6667 5 11.6667C5.64342 11.6667 6.16667 11.1435 6.16667 10.5001C6.16667 10.048 5.52733 8.78564 5 7.86573Z" fill="#06623A"/>
    </g>
    <!-- limpeza -->
    <g id="limpeza">
      <path d="M0.984375 13.5625H2.1875C2.35616 13.5625 2.50863 13.4967 2.625 13.3919C2.74137 13.4969 2.89384 13.5625 3.0625 13.5625C3.23116 13.5625 3.38363 13.4967 3.5 13.3919C3.61637 13.4969 3.76884 13.5625 3.9375 13.5625C4.10616 13.5625 4.25863 13.4967 4.375 13.3919C4.49137 13.4969 4.64384 13.5625 4.8125 13.5625H6.01562C6.31728 13.5625 6.5625 13.3171 6.5625 13.0156C6.5625 12.7142 6.31728 12.4688 6.01562 12.4688H5.6875C5.56675 12.4688 5.46875 12.3705 5.46875 12.25V9.84375C5.46875 9.31569 5.09228 8.87381 4.59375 8.77209V8.53125C4.59375 8.17534 4.42028 7.86166 4.15625 7.66194V0.65625C4.15625 0.5355 4.05847 0.4375 3.9375 0.4375H3.0625C2.94153 0.4375 2.84375 0.5355 2.84375 0.65625V7.66194C2.57972 7.86188 2.40625 8.17556 2.40625 8.53125V8.77209C1.90772 8.87381 1.53125 9.31569 1.53125 9.84375V12.25C1.53125 12.3705 1.43325 12.4688 1.3125 12.4688H0.984375C0.682719 12.4688 0.4375 12.7142 0.4375 13.0156C0.4375 13.3171 0.682719 13.5625 0.984375 13.5625ZM3.0625 13.125C2.94175 13.125 2.84375 13.0268 2.84375 12.9062V12.4688V9.625V9.40625C2.84375 9.28572 2.94175 9.1875 3.0625 9.1875H3.28125V9.625V12.4688V12.9062C3.28125 13.0268 3.18325 13.125 3.0625 13.125ZM3.9375 13.125C3.81675 13.125 3.71875 13.0268 3.71875 12.9062V12.4688V9.625V9.1875H3.9375C4.05825 9.1875 4.15625 9.28572 4.15625 9.40625V12.9062C4.15625 13.0268 4.05825 13.125 3.9375 13.125ZM5.03125 9.84375V12.25C5.03125 12.6118 5.32569 12.9062 5.6875 12.9062H6.01562C6.07578 12.9062 6.125 12.9552 6.125 13.0156C6.125 13.076 6.07578 13.125 6.01562 13.125H4.8125C4.69175 13.125 4.59375 13.0268 4.59375 12.9062V9.40625V9.22491C4.84837 9.31525 5.03125 9.5585 5.03125 9.84375ZM3.28125 0.875H3.71875V7.45959C3.64809 7.44516 3.57481 7.4375 3.5 7.4375C3.42519 7.4375 3.35191 7.44516 3.28125 7.45959V0.875ZM2.84375 8.53125C2.84375 8.16944 3.13819 7.875 3.5 7.875C3.86181 7.875 4.15625 8.16944 4.15625 8.53125V8.75H3.9375H3.5H3.0625H2.84375V8.53125ZM0.984375 12.9062H1.3125C1.67431 12.9062 1.96875 12.6118 1.96875 12.25V9.84375C1.96875 9.5585 2.15163 9.31525 2.40625 9.22491V9.40625V9.625V12.4688V12.9062C2.40625 13.0268 2.30825 13.125 2.1875 13.125H0.984375C0.924219 13.125 0.875 13.076 0.875 13.0156C0.875 12.9552 0.924219 12.9062 0.984375 12.9062Z" fill="#06623A"/>
      <path d="M9.84375 5.46875H10.2812V5.90625H9.84375V5.46875Z" fill="#06623A"/>
      <path d="M10.2812 5.03125H10.7188V5.46875H10.2812V5.03125Z" fill="#06623A"/>
      <path d="M10.7188 5.46875H11.1562V5.90625H10.7188V5.46875Z" fill="#06623A"/>
      <path d="M10.2812 5.90625H10.7188V6.34375H10.2812V5.90625Z" fill="#06623A"/>
      <path d="M12.0312 4.375H12.4688V4.8125H12.0312V4.375Z" fill="#06623A"/>
      <path d="M12.4688 3.9375H12.9062V4.375H12.4688V3.9375Z" fill="#06623A"/>
      <path d="M12.9062 4.375H13.3438V4.8125H12.9062V4.375Z" fill="#06623A"/>
      <path d="M12.4688 4.8125H12.9062V5.25H12.4688V4.8125Z" fill="#06623A"/>
      <path d="M8.17939 7.92028C8.07986 7.89009 7.97792 7.875 7.87511 7.875C7.34595 7.875 6.90364 8.253 6.80323 8.75306C6.4552 8.76881 6.17651 9.0545 6.17651 9.40625C6.17651 9.76806 6.47095 10.0625 6.83276 10.0625H6.85836L6.93689 10.6912L6.54358 11.0843C6.41473 11.2136 6.34386 11.3848 6.34386 11.5673C6.34386 11.8486 6.50529 12.0903 6.76539 12.1979C6.85245 12.234 6.94258 12.2517 7.03095 12.2517C7.06464 12.2517 7.09767 12.2469 7.1307 12.2419L7.22389 12.9876C7.26479 13.3153 7.54479 13.5625 7.87511 13.5625H11.4263C11.7566 13.5625 12.0366 13.3153 12.0775 12.9876L12.4433 10.0625H12.4689C12.8307 10.0625 13.1251 9.76806 13.1251 9.40625C13.1251 9.04444 12.8307 8.75 12.4689 8.75H12.4378C12.3409 8.37747 12.0073 8.09944 11.6065 8.09375C11.2756 7.42416 10.6005 7 9.84386 7C9.15895 7 8.53792 7.34781 8.17939 7.92028ZM6.61379 9.40625C6.61379 9.28572 6.71179 9.1875 6.83254 9.1875H8.44058L8.00308 9.625H6.83254C6.71201 9.625 6.61379 9.52678 6.61379 9.40625ZM7.29914 10.0625H7.56558L7.32867 10.2994L7.29914 10.0625ZM6.93273 11.7939C6.89729 11.779 6.78136 11.7193 6.78136 11.5673C6.78136 11.5017 6.80695 11.44 6.85311 11.3938L9.05942 9.1875H9.75329L7.20004 11.7405C7.09286 11.8482 6.96817 11.8083 6.93273 11.7939ZM11.6435 12.9334C11.6297 13.0428 11.5363 13.125 11.4263 13.125H7.87511C7.76508 13.125 7.67167 13.0428 7.65811 12.9334L7.54348 12.0159L9.49692 10.0625H12.0023L11.6435 12.9334ZM12.6876 9.40625C12.6876 9.52678 12.5896 9.625 12.4689 9.625H9.93442L10.3719 9.1875H12.4689C12.5896 9.1875 12.6876 9.28572 12.6876 9.40625ZM11.2666 8.40547C11.3055 8.50325 11.4079 8.56013 11.5112 8.53978C11.5379 8.53475 11.5654 8.53125 11.5939 8.53125C11.7551 8.53125 11.8946 8.61984 11.9705 8.75H7.25911C7.34967 8.49603 7.59029 8.3125 7.87511 8.3125C7.97617 8.3125 8.07701 8.33831 8.17479 8.38928C8.22708 8.41641 8.28789 8.42122 8.34367 8.40306C8.39967 8.38491 8.44583 8.34466 8.47186 8.29216C8.73261 7.76497 9.25826 7.4375 9.84386 7.4375C10.4752 7.4375 11.0334 7.81747 11.2666 8.40547Z" fill="#06623A"/>
    </g>
    <!-- utensilios -->
    <g id="utensilios">
      <path d="M2.12002 7.09999L2.37998 6.87997C2.52002 6.75995 2.6 6.59999 2.6 6.42001V1.39999C2.6 1.05995 2.34004 0.799988 2 0.799988H1.6C1.25996 0.799988 1 1.05995 1 1.39999V6.42001C1 6.59999 1.07998 6.77997 1.22002 6.87997L1.47998 7.09999L0.22002 8.14003C0.0799805 8.24003 0 8.39999 0 8.57997V11.4C0 11.74 0.259961 12 0.6 12H3C3.34004 12 3.6 11.74 3.6 11.4V8.57997C3.6 8.39999 3.52002 8.22001 3.37998 8.12001L2.12002 7.09999ZM1.47998 6.55995C1.42002 6.52001 1.4 6.47997 1.4 6.42001V1.39999C1.4 1.27997 1.47998 1.19999 1.6 1.19999H2C2.12002 1.19999 2.2 1.27997 2.2 1.39999V6.42001C2.2 6.47997 2.17998 6.54003 2.12002 6.57997L1.8 6.84003L1.47998 6.55995ZM3.2 11.4C3.2 11.52 3.12002 11.6 3 11.6H0.6C0.47998 11.6 0.4 11.52 0.4 11.4V8.57997C0.4 8.52001 0.42002 8.45995 0.47998 8.42001L1.8 7.34003L3.12002 8.42001C3.15996 8.45995 3.2 8.52001 3.2 8.57997V11.4Z" fill="#06623A"/>
      <path d="M11.4 0H0.6C0.259961 0 0 0.259961 0 0.6V1.6H0.6V1.2H0.4V0.6C0.4 0.479981 0.47998 0.4 0.6 0.4H11.4C11.52 0.4 11.6 0.479981 11.6 0.6V1.2H11.4V1.6H12V0.6C12 0.259961 11.74 0 11.4 0Z" fill="#06623A"/>
      <path d="M3 1.20001H4.8V1.60001H3V1.20001Z" fill="#06623A"/>
      <path d="M0.800049 8.60001H1.20005V11.2H0.800049V8.60001Z" fill="#06623A"/>
      <path d="M2.3999 8.60001H2.7999V11.2H2.3999V8.60001Z" fill="#06623A"/>
      <path d="M1.6001 8.60001H2.0001V11.2H1.6001V8.60001Z" fill="#06623A"/>
      <path d="M7.19995 1.20001H8.99995V1.60001H7.19995V1.20001Z" fill="#06623A"/>
      <path d="M10.8399 7.42001L10.3999 7.25995V6.69999L10.7399 6.47997C10.8999 6.35995 10.9999 6.17997 10.9999 5.97997V1.39999C10.9999 1.05995 10.7399 0.799988 10.3999 0.799988H9.9999C9.65986 0.799988 9.3999 1.05995 9.3999 1.39999V5.97997C9.3999 6.17997 9.4999 6.35995 9.65986 6.47997L9.9999 6.69999V7.25995L9.55986 7.42001C8.85986 7.67997 8.3999 8.35995 8.3999 9.09999V10.2C8.3999 11.2 9.1999 12 10.1999 12C11.1999 12 11.9999 11.2 11.9999 10.2V9.09999C11.9999 8.35995 11.5399 7.67997 10.8399 7.42001ZM9.7999 5.97997V1.39999C9.7999 1.27997 9.87988 1.19999 9.9999 1.19999H10.3999C10.5199 1.19999 10.5999 1.27997 10.5999 1.39999V5.97997C10.5999 6.04003 10.5599 6.09999 10.5199 6.14003L10.1999 6.34003L9.87988 6.14003C9.83994 6.12001 9.7999 6.05995 9.7999 5.97997ZM11.5999 10.2C11.5999 10.98 10.9799 11.6 10.1999 11.6C9.41992 11.6 8.7999 10.98 8.7999 10.2V9.09999C8.7999 8.52001 9.15986 7.99999 9.6999 7.77997L10.1999 7.59999L10.6999 7.77997C11.2399 7.97997 11.5999 8.49999 11.5999 9.09999V10.2Z" fill="#06623A"/>
      <path d="M10.8 9.99999C10.8 10.44 10.44 10.8 10 10.8V11.2C10.66 11.2 11.2 10.6599 11.2 9.99999V8.79999H10.8V9.99999Z" fill="#06623A"/>
      <path d="M6.9 6.72001L6.8 6.67997V1.39999C6.8 1.05995 6.54004 0.799988 6.2 0.799988H5.8C5.45996 0.799988 5.2 1.05995 5.2 1.39999V6.67997L5.1 6.72001C4.42002 7.05995 4 7.75995 4 8.49999V9.99999C4 11.1 4.9 12 6 12C7.1 12 8 11.1 8 9.99999V8.52001C8 7.75995 7.57998 7.05995 6.9 6.72001ZM5.8 11.42C5.05996 10.1 5.05996 8.49999 5.8 7.19999V11.42ZM6.2 7.19999C6.94004 8.52001 6.94004 10.12 6.2 11.42V7.19999ZM5.8 1.19999H6.2C6.32002 1.19999 6.4 1.27997 6.4 1.39999V6.59999H5.6V1.39999C5.6 1.27997 5.67998 1.19999 5.8 1.19999ZM4.4 9.99999V8.52001C4.4 7.92001 4.74004 7.35995 5.27998 7.07997L5.44004 6.99999C4.65996 8.37997 4.64004 10.0599 5.35996 11.48C4.77998 11.22 4.4 10.64 4.4 9.99999ZM7.6 9.99999C7.6 10.64 7.22002 11.22 6.62002 11.48C7.35996 10.08 7.32002 8.37997 6.54004 6.99999L6.7 7.07997C7.24004 7.34003 7.57998 7.89999 7.57998 8.52001V9.99999H7.6Z" fill="#06623A"/>
    </g>
    <!-- petshop -->
    <g id="petshop">
      <g clip-path="url(#clip0)">
        <path d="M5.99979 5.79999C5.09339 5.79999 3.22539 7.27298 2.80579 8.95138C2.59379 9.79998 2.63359 10.3956 2.92779 10.7724C3.14919 11.0562 3.50999 11.2 3.99979 11.2C4.3839 11.1856 4.75834 11.0756 5.08919 10.88C5.36508 10.7132 5.67785 10.617 5.99979 10.6C6.32174 10.617 6.63451 10.7132 6.91039 10.88C7.24125 11.0756 7.61569 11.1856 7.99979 11.2C8.48959 11.2 8.85039 11.0562 9.07179 10.7724C9.36599 10.3956 9.40579 9.79998 9.19379 8.95138C8.77419 7.27298 6.90619 5.79999 5.99979 5.79999ZM8.75659 10.5262C8.61259 10.7104 8.36519 10.8 7.99979 10.8C7.67785 10.783 7.36508 10.6868 7.08919 10.52C6.75834 10.3243 6.3839 10.2143 5.99979 10.2C5.61569 10.2143 5.24125 10.3243 4.91039 10.52C4.63451 10.6868 4.32174 10.783 3.99979 10.8C3.63439 10.8 3.38699 10.7104 3.24299 10.5262C3.03259 10.2568 3.01599 9.75958 3.19379 9.04858C3.57639 7.51858 5.31039 6.19999 5.99979 6.19999C6.68919 6.19999 8.42319 7.51858 8.80579 9.04858C8.98359 9.75998 8.96699 10.2568 8.75659 10.5262Z" fill="#06623A"/>
        <path d="M4.4 5.4C5.185 5.4 5.8 4.4336 5.8 3.2C5.8 1.9664 5.185 1 4.4 1C3.615 1 3 1.9664 3 3.2C3 4.4336 3.615 5.4 4.4 5.4ZM4.4 1.4C4.942 1.4 5.4 2.2244 5.4 3.2C5.4 4.1756 4.942 5 4.4 5C3.858 5 3.4 4.1756 3.4 3.2C3.4 2.2244 3.858 1.4 4.4 1.4Z" fill="#06623A"/>
        <path d="M3.42108 6.46001C3.47085 6.02847 3.40053 5.59156 3.21788 5.19741C2.81048 4.27381 2.00888 3.76301 1.39368 4.03441C0.778484 4.30581 0.613684 5.24201 1.02168 6.16561C1.18958 6.56621 1.46466 6.91277 1.81668 7.16721C2.01494 7.31126 2.25194 7.39238 2.49688 7.40001C2.61695 7.40051 2.73578 7.37578 2.84568 7.32741C3.17708 7.16004 3.39575 6.83041 3.42108 6.46001ZM2.68448 6.96201C2.46282 7.03413 2.21963 6.98655 2.04148 6.83621C1.75142 6.62387 1.52526 6.33593 1.38768 6.00381C1.08168 5.30941 1.15828 4.57501 1.55488 4.40001C1.61451 4.37417 1.67889 4.36109 1.74388 4.36161C2.12208 4.36161 2.59128 4.76741 2.85188 5.35841C3.00432 5.68393 3.06431 6.0451 3.02528 6.40242C3.01609 6.63533 2.88721 6.84696 2.68448 6.96201Z" fill="#06623A"/>
        <path d="M7.6002 5.4C8.3852 5.4 9.0002 4.4336 9.0002 3.2C9.0002 1.9664 8.3852 1 7.6002 1C6.8152 1 6.2002 1.9664 6.2002 3.2C6.2002 4.4336 6.8152 5.4 7.6002 5.4ZM7.6002 1.4C8.1422 1.4 8.6002 2.2244 8.6002 3.2C8.6002 4.1756 8.1422 5 7.6002 5C7.0582 5 6.6002 4.1756 6.6002 3.2C6.6002 2.2244 7.0582 1.4 7.6002 1.4Z" fill="#06623A"/>
        <path d="M10.6062 4.034C9.992 3.7626 9.1894 4.274 8.782 5.197C8.59929 5.59126 8.52897 6.02832 8.57881 6.46C8.6038 6.83077 8.82251 7.16085 9.1542 7.3284C9.26418 7.37642 9.38301 7.40081 9.503 7.4C9.74799 7.39203 9.98491 7.31057 10.183 7.1662C10.535 6.91175 10.8101 6.56519 10.978 6.1646C11.3854 5.2416 11.2218 4.3054 10.6062 4.034ZM10.6122 6.0038C10.4746 6.33591 10.2485 6.62385 9.9584 6.8362C9.78029 6.9866 9.53706 7.03419 9.3154 6.962C9.11287 6.84667 8.98429 6.6349 8.9754 6.402C8.93638 6.04468 8.99637 5.68352 9.1488 5.358C9.455 4.6636 10.0488 4.2242 10.4458 4.3996C10.8428 4.575 10.9182 5.3094 10.6122 6.0038Z" fill="#06623A"/>
        <path d="M11.0894 3.221C10.7632 3.06686 10.4068 2.98746 10.046 2.9886C10.1595 2.27195 9.97124 1.5403 9.526 0.9674C9.06551 0.367628 8.35608 0.011293 7.6 0C6.6836 0 6.2234 0.4038 6 0.735C5.7766 0.4038 5.3164 0 4.4 0C3.6442 0.011536 2.93512 0.367846 2.4748 0.9674C2.02956 1.5403 1.84132 2.27195 1.9548 2.9886C1.59405 2.98757 1.23761 3.06696 0.9114 3.221C0.4952 3.4288 0 4.0102 0 5.6C0 6.4642 0.264 7.3616 0.5436 8.3118C0.8338 9.298 1.1338 10.3178 1.1904 11.4338C1.20722 11.7516 1.47012 12.0006 1.7884 12H10.2116C10.5299 12.0005 10.7929 11.7515 10.8096 11.4336C10.8662 10.3178 11.1662 9.298 11.4564 8.3118C11.736 7.3616 12 6.4642 12 5.6C12 4.0102 11.5048 3.4288 11.0894 3.221ZM11.0726 8.1988C10.776 9.2074 10.4692 10.2502 10.41 11.413C10.4041 11.5182 10.317 11.6004 10.2116 11.6H1.7884C1.68312 11.6004 1.59595 11.5183 1.59 11.4132C1.53 10.2502 1.224 9.2074 0.9274 8.1988C0.656 7.2772 0.4 6.4066 0.4 5.6C0.4 4.087 0.8822 3.6826 1.0894 3.58C1.36743 3.45072 1.67102 3.38578 1.9776 3.39C2.04319 3.38939 2.10877 3.39252 2.174 3.3994C2.23966 3.40802 2.30532 3.38357 2.34937 3.33412C2.39341 3.28467 2.41012 3.21663 2.394 3.1524C2.21852 2.47994 2.36479 1.76412 2.79 1.2144C3.17423 0.711422 3.76716 0.411495 4.4 0.4C5.608 0.4 5.7966 1.2064 5.804 1.24C5.8229 1.33262 5.90407 1.39936 5.9986 1.4H6C6.09442 1.39999 6.17596 1.33395 6.1956 1.2416C6.2034 1.2064 6.392 0.4 7.6 0.4C8.23267 0.411255 8.82557 0.710798 9.21 1.2134C9.63521 1.76312 9.78148 2.47894 9.606 3.1514C9.58988 3.21563 9.60659 3.28367 9.65063 3.33312C9.69468 3.38257 9.76034 3.40702 9.826 3.3984C10.1972 3.36317 10.5712 3.4252 10.9112 3.5784C11.1178 3.6826 11.6 4.087 11.6 5.6C11.6 6.4066 11.344 7.2772 11.0726 8.1988Z" fill="#06623A"/>
      </g>
      <defs>
        <clipPath id="clip0">
          <rect width="12" height="12" fill="white"/>
        </clipPath>
      </defs>
    </g>
    <!-- embalagens -->
    <g id="embalagens">
      <path d="M9.54244 1.07284H9.38239C8.80601 0.389543 7.97175 0 7.07461 0H3.92544C3.02793 0 2.19375 0.389616 1.61751 1.07284H1.45739C0.739369 1.07284 0.155273 1.65694 0.155273 2.37481C0.155273 3.02231 0.630265 3.56077 1.2501 3.66048L1.3731 4.74213L1.37471 4.75494C1.37478 4.75516 1.37478 4.75523 1.37478 4.75523V4.75552L1.98471 9.62772C1.98471 9.62772 1.98471 9.62816 1.98471 9.6283L2.09636 10.5206C2.13057 10.7939 2.36414 10.9999 2.63963 10.9999H8.36027C8.63605 10.9999 8.86962 10.7938 8.90368 10.5205L9.01519 9.6283V9.62787L9.62534 4.75567V4.75538L9.74988 3.66048C10.3696 3.56077 10.8447 3.02231 10.8447 2.37481C10.8447 1.65701 10.2605 1.07284 9.54244 1.07284ZM3.92544 0.491296H7.07461C7.67355 0.491296 8.23916 0.698659 8.68861 1.07284H2.31122C2.7606 0.698659 3.32628 0.491296 3.92544 0.491296ZM8.41617 10.4596C8.41268 10.4876 8.38866 10.5086 8.36035 10.5086H2.63956C2.61124 10.5086 2.5873 10.4875 2.5838 10.4595L2.50672 9.84353H8.49325L8.41617 10.4596ZM8.55468 9.35216H2.44522L1.89672 4.97075H9.10326L8.55468 9.35216ZM9.54244 3.18592H8.71C8.57433 3.18592 8.46436 3.2959 8.46436 3.43157C8.46436 3.56724 8.57433 3.67722 8.71 3.67722H9.25356L9.16251 4.47938H1.83762L1.74642 3.67722H6.83209C6.96769 3.67722 7.07774 3.56724 7.07774 3.43157C7.07774 3.2959 6.96769 3.18592 6.83209 3.18592H1.45739C1.01027 3.18592 0.646569 2.82207 0.646569 2.37489C0.646569 1.92784 1.01035 1.56421 1.45739 1.56421H1.73426H9.26571H9.54244C9.98963 1.56421 10.3535 1.92792 10.3535 2.37489C10.3534 2.82207 9.98956 3.18592 9.54244 3.18592Z" fill="#06623A"/>
    </g>
    <!-- universos -->
    <g id="universos">
      <path d="M4.72144 4.39639L6.88154 2.23618L7.18803 2.54256L5.02782 4.70277L4.72144 4.39639Z" fill="#06623A"/>
      <path d="M5.15796 6.12643L7.97695 3.30743L8.28333 3.61392L5.46445 6.43281L5.15796 6.12643Z" fill="#06623A"/>
      <path d="M8.97607 0V0.433333C10.2978 0.433333 11.3594 1.49498 11.3594 2.81667V10.8333H10.0594V11.2667H11.3594V12.5667H10.0594V13H11.7927V2.81667C11.7927 1.25662 10.5361 0 8.97607 0Z" fill="#06623A"/>
      <path d="M6.59266 0C4.92439 0 3.55933 1.36496 3.55933 3.03333V6.67329C3.55933 6.69498 3.53774 6.71667 3.51606 6.71667C3.49437 6.71667 3.49437 6.71667 3.49437 6.69498L2.86606 5.11335C2.69266 4.65833 2.19437 4.44167 1.73935 4.61496C1.3277 4.76667 1.11103 5.22169 1.21937 5.65502L2.69266 11.0717V13H9.62599V3.03333C9.62599 1.36496 8.26104 0 6.59266 0ZM9.19266 12.5667H3.12599V11.2667H8.54266V10.8333H3.06103L1.63101 5.525C1.56606 5.28665 1.69608 5.04829 1.93433 4.98333C2.15099 4.91838 2.36766 5.02671 2.45441 5.24338L3.08272 6.825C3.16937 7.06335 3.45099 7.19338 3.68935 7.08504C3.86274 7.01998 3.99266 6.84669 3.99266 6.65171V3.03333C3.99266 1.60331 5.16274 0.433333 6.59266 0.433333C8.02268 0.433333 9.19266 1.60331 9.19266 3.03333V12.5667Z" fill="#06623A"/>
      <path d="M3.58105 11.7H4.44772V12.1333H3.58105V11.7Z" fill="#06623A"/>
    </g>
    <!-- instagram-icon-top -->
    <g id="instagram">
      <path d="M10.6667 2.66667H5.33335C3.86059 2.66667 2.66669 3.86057 2.66669 5.33333V10.6667C2.66669 12.1394 3.86059 13.3333 5.33335 13.3333H10.6667C12.1394 13.3333 13.3334 12.1394 13.3334 10.6667V5.33333C13.3334 3.86057 12.1394 2.66667 10.6667 2.66667Z" stroke="#F2FFF9" stroke-width="1.2" stroke-linecap="round" stroke-linejoin="round"/>
      <path d="M8 10C9.10457 10 10 9.10457 10 8C10 6.89543 9.10457 6 8 6C6.89543 6 6 6.89543 6 8C6 9.10457 6.89543 10 8 10Z" stroke="#F2FFF9" stroke-width="1.2" stroke-linecap="round" stroke-linejoin="round"/>
      <path d="M11 5V5.001" stroke="#F2FFF9" stroke-width="1.2" stroke-linecap="round" stroke-linejoin="round"/>
    </g>
    <!-- facebook-icon-top -->
    <g id="facebook">
      <path d="M4.66669 6.66667V9.33333H6.66669V14H9.33335V9.33333H11.3334L12 6.66667H9.33335V5.33333C9.33335 5.15652 9.40359 4.98695 9.52862 4.86193C9.65364 4.7369 9.82321 4.66667 10 4.66667H12V2H10C9.11597 2 8.26812 2.35119 7.643 2.97631C7.01788 3.60143 6.66669 4.44928 6.66669 5.33333V6.66667H4.66669Z" stroke="#F2FFF9" stroke-width="1.2" stroke-linecap="round" stroke-linejoin="round"/>
    </g>
    <!-- whatsapp-icon-top -->
    <g id="whatsapp">
      <path d="M2 14.0001L3.1 11.4668C2.25844 10.2721 1.88178 8.81145 2.0407 7.35883C2.19961 5.90621 2.88319 4.56152 3.96314 3.5771C5.04309 2.59269 6.44517 2.03623 7.90625 2.01216C9.36734 1.98808 10.787 2.49804 11.8988 3.44634C13.0106 4.39463 13.7381 5.71608 13.9448 7.16267C14.1515 8.60926 13.8231 10.0816 13.0214 11.3033C12.2197 12.525 10.9996 13.4121 9.59026 13.7982C8.1809 14.1842 6.67908 14.0427 5.36667 13.4001L2 14.0001" stroke="#F2FFF9" stroke-width="1.2" stroke-linecap="round" stroke-linejoin="round"/>
      <path d="M6 6.66667C6 6.75507 6.03512 6.83986 6.09763 6.90237C6.16014 6.96488 6.24493 7 6.33333 7C6.42174 7 6.50652 6.96488 6.56904 6.90237C6.63155 6.83986 6.66667 6.75507 6.66667 6.66667V6C6.66667 5.91159 6.63155 5.82681 6.56904 5.7643C6.50652 5.70178 6.42174 5.66667 6.33333 5.66667C6.24493 5.66667 6.16014 5.70178 6.09763 5.7643C6.03512 5.82681 6 5.91159 6 6V6.66667ZM6 6.66667C6 7.55072 6.35119 8.39857 6.97631 9.02369C7.60143 9.64881 8.44928 10 9.33333 10H10C10.0884 10 10.1732 9.96488 10.2357 9.90237C10.2982 9.83986 10.3333 9.75507 10.3333 9.66667C10.3333 9.57826 10.2982 9.49348 10.2357 9.43096C10.1732 9.36845 10.0884 9.33333 10 9.33333H9.33333C9.24493 9.33333 9.16014 9.36845 9.09763 9.43096C9.03512 9.49348 9 9.57826 9 9.66667C9 9.75507 9.03512 9.83986 9.09763 9.90237C9.16014 9.96488 9.24493 10 9.33333 10" stroke="#F2FFF9" stroke-width="1.2" stroke-linecap="round" stroke-linejoin="round"/>
    </g>
  </defs>
</svg>
